<svg xmlns="http://www.w3.org/2000/svg" xmlns:xlink="http://www.w3.org/1999/xlink" width="28.701" height="26.588" viewBox="0 0 28.701 26.588">
  <defs>
    <clipPath id="clip-path">
      <rect id="사각형_108" data-name="사각형 108" width="28.701" height="26.588" fill="#066b57"/>
    </clipPath>
  </defs>
  <g id="그룹_122" data-name="그룹 122" transform="translate(0 0)">
    <g id="그룹_121" data-name="그룹 121" transform="translate(0 0)" clip-path="url(#clip-path)">
      <path id="패스_132" data-name="패스 132" d="M26.454,7.858l-.5-.377V6.911A3.055,3.055,0,0,0,22.9,3.859h-1.79L16.974.768a4.865,4.865,0,0,0-5.248,0L7.594,3.859H5.831A3.057,3.057,0,0,0,2.778,6.911V7.46l-.532.4A4.873,4.873,0,0,0,0,11.963v9.751a4.873,4.873,0,0,0,4.874,4.874H23.827A4.873,4.873,0,0,0,28.7,21.714V11.963a4.873,4.873,0,0,0-2.247-4.105m-12.8-4.246a1.437,1.437,0,0,1,1.4,0l.329.247H13.321ZM6.208,7.288H22.52V11l-7.467,5.515a1.183,1.183,0,0,1-1.406,0L6.208,11.017ZM25.271,21.714a1.446,1.446,0,0,1-1.444,1.444H4.874A1.446,1.446,0,0,1,3.43,21.714V13.225l8.18,6.043a4.586,4.586,0,0,0,5.481,0l8.18-6.043Z" transform="translate(0 0)" fill="#066b57"/>
      <path id="패스_133" data-name="패스 133" d="M37.453,27.825l-2.336,2.336a1.37,1.37,0,0,1-1.938,0L30.8,27.777a2.306,2.306,0,0,1,.082-3.341,2.348,2.348,0,0,1,3.224.123l.045.045.089-.089a2.306,2.306,0,0,1,3.341.082,2.349,2.349,0,0,1-.123,3.227" transform="translate(-19.789 -15.663)" fill="#066b57"/>
    </g>
  </g>
</svg>
