<?xml version="1.0" encoding="utf-8"?>
<!-- Generator: Adobe Illustrator 28.2.0, SVG Export Plug-In . SVG Version: 6.00 Build 0)  -->
<svg version="1.1" id="레이어_1" xmlns="http://www.w3.org/2000/svg" xmlns:xlink="http://www.w3.org/1999/xlink" x="0px"
	 y="0px" viewBox="0 0 612 612" style="enable-background:new 0 0 612 612;" xml:space="preserve">
<style type="text/css">
	.st0{fill:#FF6B57;}
	.st1{fill:url(#SVGID_1_);}
	.st2{fill:url(#SVGID_00000023282940571586194520000017044758669478530730_);}
	.st3{fill:url(#SVGID_00000121960102737765161560000006744465107625117612_);}
	.st4{fill:url(#SVGID_00000098189342033561861030000007965669292235822246_);}
	.st5{fill:url(#SVGID_00000116940057031674734700000014536916245359563163_);}
	.st6{fill:#F3F8FF;}
	.st7{fill:url(#SVGID_00000109731551100820732700000001028897794600059050_);}
	.st8{fill:#AAAAAA;}
	.st9{fill:#2865D1;}
	.st10{fill:#4875D8;}
	.st11{fill:#EFEFEF;}
	.st12{fill:#9ABCF7;}
	.st13{fill:#4B87E0;}
	.st14{fill:#F3F9FF;}
	.st15{fill:#3D83E8;}
	.st16{fill:#64A3ED;}
</style>
<circle class="st0" cx="306" cy="306" r="306"/>
<g>
	<linearGradient id="SVGID_1_" gradientUnits="userSpaceOnUse" x1="236.5877" y1="172.802" x2="467.9608" y2="306.3854">
		<stop  offset="0" style="stop-color:#0041BF"/>
		<stop  offset="1" style="stop-color:#2865D1"/>
	</linearGradient>
	<polygon class="st1" points="213.45,212.87 398.55,106 491.1,266.31 306,373.19 	"/>
	
		<linearGradient id="SVGID_00000173121791625331048080000015124243020513216904_" gradientUnits="userSpaceOnUse" x1="139.497" y1="260.8016" x2="283.1121" y2="509.5501">
		<stop  offset="0" style="stop-color:#DDDDDD"/>
		<stop  offset="0.9994" style="stop-color:#FFFFFF"/>
	</linearGradient>
	<polygon style="fill:url(#SVGID_00000173121791625331048080000015124243020513216904_);" points="289.26,363.5 289.26,506 
		132.53,415.52 132.53,273.02 211.72,219.1 	"/>
	
		<linearGradient id="SVGID_00000175291223082806032520000018039617447918141106_" gradientUnits="userSpaceOnUse" x1="273.5912" y1="490.3301" x2="489.6288" y2="274.2925">
		<stop  offset="0" style="stop-color:#B5B5B5"/>
		<stop  offset="1" style="stop-color:#EFEFEF"/>
	</linearGradient>
	<polygon style="fill:url(#SVGID_00000175291223082806032520000018039617447918141106_);" points="289.26,506 484.08,391 
		485.11,269.77 306,373.19 289.26,363.5 	"/>
	
		<linearGradient id="SVGID_00000091703406018750357820000014974183682573998998_" gradientUnits="userSpaceOnUse" x1="367.699" y1="243.6139" x2="398.5485" y2="243.6139">
		<stop  offset="0" style="stop-color:#B5B5B5"/>
		<stop  offset="1" style="stop-color:#EFEFEF"/>
	</linearGradient>
	<polygon style="fill:url(#SVGID_00000091703406018750357820000014974183682573998998_);" points="398.55,199.08 367.7,216.9 
		367.7,288.15 398.55,270.33 	"/>
	
		<linearGradient id="SVGID_00000105411703645293667120000006445817067689256081_" gradientUnits="userSpaceOnUse" x1="336.8495" y1="243.6139" x2="367.699" y2="243.6139">
		<stop  offset="0" style="stop-color:#DDDDDD"/>
		<stop  offset="0.9994" style="stop-color:#FFFFFF"/>
	</linearGradient>
	<polygon style="fill:url(#SVGID_00000105411703645293667120000006445817067689256081_);" points="336.85,199.08 336.85,270.33 
		367.7,288.15 367.7,216.9 	"/>
	<polygon class="st6" points="367.7,181.27 336.85,199.08 367.7,216.9 398.55,199.08 	"/>
	
		<linearGradient id="SVGID_00000007415116080053502910000009214606471930714030_" gradientUnits="userSpaceOnUse" x1="349.732" y1="188.7128" x2="373.6916" y2="202.5459">
		<stop  offset="0" style="stop-color:#686868"/>
		<stop  offset="0.3929" style="stop-color:#6B6B6B"/>
		<stop  offset="0.6852" style="stop-color:#747474"/>
		<stop  offset="0.9441" style="stop-color:#848484"/>
		<stop  offset="0.9996" style="stop-color:#898989"/>
	</linearGradient>
	<polygon style="fill:url(#SVGID_00000007415116080053502910000009214606471930714030_);" points="367.7,185.25 367.7,212.92 
		343.74,199.09 	"/>
	<polygon class="st8" points="391.66,199.09 367.7,212.92 367.7,185.25 	"/>
	<polygon class="st9" points="175.7,440.45 175.7,369.2 223.38,396.73 223.38,467.98 	"/>
	<polygon class="st10" points="120.9,266.31 213.45,212.87 306,373.19 289.26,363.5 210.99,229.37 132.53,273.02 	"/>
	
		<ellipse transform="matrix(0.7375 -0.6753 0.6753 0.7375 -231.1929 256.3343)" class="st11" cx="214.15" cy="425.57" rx="2.16" ry="2.58"/>
	<polygon class="st12" points="204.97,263.13 160.17,289 249.77,340.74 	"/>
	<polygon class="st13" points="204.97,263.13 204.97,314.84 206.67,315.86 206.67,266.08 	"/>
	<polygon class="st13" points="175.03,280.42 232.51,310.84 230.72,307.74 176.53,279.55 	"/>
	<polygon class="st14" points="354.23,371.95 354.23,434.43 429.1,391.2 429.1,328.71 	"/>
	<polygon class="st15" points="358.04,375.1 358.04,426.87 425.28,388.04 425.28,336.27 	"/>
	<polygon class="st16" points="363.71,375.83 371.46,371.49 420.03,387.34 412.78,391.59 	"/>
	<polygon class="st16" points="375.72,369.36 422.42,384.69 422.42,383.06 377.53,368.36 	"/>
</g>
</svg>
