<?xml version="1.0" encoding="utf-8"?>
<!-- Generator: Adobe Illustrator 28.2.0, SVG Export Plug-In . SVG Version: 6.00 Build 0)  -->
<svg version="1.1" id="레이어_1" xmlns="http://www.w3.org/2000/svg" xmlns:xlink="http://www.w3.org/1999/xlink" x="0px"
	 y="0px" viewBox="0 0 612 612" style="enable-background:new 0 0 612 612;" xml:space="preserve">
<style type="text/css">
	.st0{fill:#69BFFF;}
	.st1{fill:#FFC197;}
	.st2{fill:url(#SVGID_1_);}
	.st3{fill:url(#SVGID_00000083798110038115721950000008451872300206727312_);}
	.st4{fill:url(#SVGID_00000131334139845377517810000001882188993609003665_);}
	.st5{fill:url(#SVGID_00000129163598450520736580000004871595546320523169_);}
	.st6{fill:url(#SVGID_00000068646517841753612580000013363333465187092115_);}
	.st7{fill:url(#SVGID_00000127749754064435981620000001941759871188462270_);}
	.st8{fill:url(#SVGID_00000078017438454706109790000009528759489667245999_);}
	.st9{fill:#FFF0E6;}
	.st10{fill:#FF761A;}
	.st11{fill:#FF9A55;}
	.st12{fill:url(#SVGID_00000047779203649833786990000010073966864047519893_);}
	.st13{fill:#CC5200;}
	.st14{fill:url(#SVGID_00000126313749797322150090000015451724919761378190_);}
	.st15{fill:#E25B00;}
	.st16{fill:url(#SVGID_00000000215326300542601980000007892738324705556636_);}
</style>
<circle class="st0" cx="306" cy="306" r="306"/>
<g>
	<polygon class="st1" points="347.45,294.38 241.74,233.35 188.89,294.38 294.59,355.41 	"/>
	<linearGradient id="SVGID_1_" gradientUnits="userSpaceOnUse" x1="229.3789" y1="255.7387" x2="306.9587" y2="333.3185">
		<stop  offset="0" style="stop-color:#F45200"/>
		<stop  offset="1" style="stop-color:#F46300"/>
	</linearGradient>
	<polygon class="st2" points="337.05,296.57 242.26,242.86 199.28,292.49 294.08,346.2 	"/>
	
		<linearGradient id="SVGID_00000134934571250195329090000012179430604743790269_" gradientUnits="userSpaceOnUse" x1="136.0403" y1="340.1551" x2="294.5945" y2="340.1551">
		<stop  offset="0" style="stop-color:#FF9A55"/>
		<stop  offset="1" style="stop-color:#FFC382"/>
	</linearGradient>
	<polygon style="fill:url(#SVGID_00000134934571250195329090000012179430604743790269_);" points="136.04,324.9 188.89,294.38 
		294.59,355.41 241.74,385.93 	"/>
	
		<linearGradient id="SVGID_00000054251092541937962390000017045774098388817286_" gradientUnits="userSpaceOnUse" x1="134.3911" y1="326.5462" x2="230.3627" y2="422.5178">
		<stop  offset="0" style="stop-color:#FFC197"/>
		<stop  offset="1" style="stop-color:#FFD697"/>
	</linearGradient>
	<polygon style="fill:url(#SVGID_00000054251092541937962390000017045774098388817286_);" points="136.04,324.9 122.68,362.8 
		228.78,424.1 241.74,385.93 	"/>
	
		<linearGradient id="SVGID_00000057124519895364986460000013482124612861599878_" gradientUnits="userSpaceOnUse" x1="241.7431" y1="225.7187" x2="479.5743" y2="225.7187">
		<stop  offset="0" style="stop-color:#FF9A55"/>
		<stop  offset="1" style="stop-color:#FFC382"/>
	</linearGradient>
	<polygon style="fill:url(#SVGID_00000057124519895364986460000013482124612861599878_);" points="373.87,157.06 241.74,233.35 
		347.45,294.38 479.57,218.09 	"/>
	
		<linearGradient id="SVGID_00000155849435410523898090000007675532183838448265_" gradientUnits="userSpaceOnUse" x1="213.4107" y1="336.5127" x2="505.9898" y2="336.5127">
		<stop  offset="0" style="stop-color:#F95B12"/>
		<stop  offset="1" style="stop-color:#F97D54"/>
	</linearGradient>
	<polygon style="fill:url(#SVGID_00000155849435410523898090000007675532183838448265_);" points="505.99,233.36 505.53,288.18 
		220.9,450.83 213.41,454.94 222.15,427.88 228.75,424.13 241.74,385.92 294.61,355.4 347.45,294.39 479.57,218.08 	"/>
	
		<linearGradient id="SVGID_00000117654134486449070970000013369987280233504673_" gradientUnits="userSpaceOnUse" x1="339.3503" y1="299.4123" x2="408.6663" y2="299.4123">
		<stop  offset="0" style="stop-color:#AA2500"/>
		<stop  offset="1" style="stop-color:#F46300"/>
	</linearGradient>
	<polygon style="fill:url(#SVGID_00000117654134486449070970000013369987280233504673_);" points="408.67,269.23 373.45,289.57 
		339.35,329.59 408.67,289.57 	"/>
	
		<linearGradient id="SVGID_00000142177333971947957110000004278108171748264880_" gradientUnits="userSpaceOnUse" x1="426.7351" y1="258.7875" x2="479.5621" y2="258.7875">
		<stop  offset="0" style="stop-color:#AA2500"/>
		<stop  offset="1" style="stop-color:#F46300"/>
	</linearGradient>
	<polygon style="fill:url(#SVGID_00000142177333971947957110000004278108171748264880_);" points="426.74,258.79 426.74,279.12 
		479.56,248.62 461.95,238.45 	"/>
	<polygon class="st9" points="142,341.76 135.79,359.7 154.43,370.46 160.64,352.53 	"/>
	<polygon class="st10" points="162.4,356.73 158.14,369.04 200.39,393.51 204.65,381.2 	"/>
	<polygon class="st9" points="208.87,380.12 202.66,398.05 221.3,408.82 227.51,390.88 	"/>
	<polygon class="st11" points="228.78,424.1 222.14,427.88 116.06,366.63 122.68,362.8 	"/>
	
		<linearGradient id="SVGID_00000178895558985711357410000017537745227784898950_" gradientUnits="userSpaceOnUse" x1="117.6898" y1="365.0059" x2="210.5198" y2="457.8358">
		<stop  offset="0" style="stop-color:#FF6B40"/>
		<stop  offset="1" style="stop-color:#FF822E"/>
	</linearGradient>
	<polygon style="fill:url(#SVGID_00000178895558985711357410000017537745227784898950_);" points="116.07,366.63 106,394.89 
		213.42,454.94 222.14,427.88 	"/>
	<g>
		<path class="st13" d="M311.33,389.1c0.21,1.43,0.31,2.91,0.31,4.42c0,18.32-14.86,37.19-33.2,42.08
			c-0.68,0.19-1.37,0.35-2.05,0.48l-4.01,5.4l-2.26-1.34c-3.01-0.95-5.71-2.47-8.01-4.44c-5.21-4.46-8.38-11.33-8.38-19.8
			c0-18.34,14.88-37.19,33.2-42.11c7.24-1.93,13.92-1.41,19.38,1.06l0.14,0.06l2.62,1.41l8.49,4.41L311.33,389.1z"/>
		
			<linearGradient id="SVGID_00000167373900695564715470000007201828619431572394_" gradientUnits="userSpaceOnUse" x1="279.4036" y1="384.6967" x2="309.5093" y2="436.8414">
			<stop  offset="0" style="stop-color:#F48940"/>
			<stop  offset="1" style="stop-color:#F4A540"/>
		</linearGradient>
		<path style="fill:url(#SVGID_00000167373900695564715470000007201828619431572394_);" d="M327.66,401.87
			c0,18.34-14.86,37.18-33.2,42.1c-18.34,4.91-33.2-5.97-33.2-24.3s14.86-37.18,33.2-42.1
			C312.79,372.65,327.66,383.54,327.66,401.87z"/>
		
			<ellipse transform="matrix(0.6585 -0.7526 0.7526 0.6585 -208.5337 361.9921)" class="st1" cx="294.59" cy="410.77" rx="27.81" ry="21.29"/>
		
			<ellipse transform="matrix(0.6585 -0.7526 0.7526 0.6585 -208.5337 361.9921)" class="st15" cx="294.59" cy="410.77" rx="6.94" ry="5.31"/>
	</g>
	<g>
		<path class="st13" d="M489.67,289.85c0.21,1.43,0.31,2.91,0.31,4.42c0,18.32-14.86,37.19-33.2,42.08
			c-0.68,0.19-1.37,0.35-2.05,0.48l-4.01,5.4l-2.26-1.34c-3.01-0.95-5.71-2.47-8.01-4.44c-5.21-4.46-8.38-11.33-8.38-19.8
			c0-18.34,14.88-37.19,33.2-42.11c7.24-1.93,13.92-1.41,19.38,1.06l0.14,0.06l2.62,1.41l8.49,4.41L489.67,289.85z"/>
		
			<linearGradient id="SVGID_00000152230729055132710210000006850723367479640995_" gradientUnits="userSpaceOnUse" x1="457.7461" y1="285.448" x2="487.8519" y2="337.5927">
			<stop  offset="0" style="stop-color:#F48940"/>
			<stop  offset="1" style="stop-color:#F4A540"/>
		</linearGradient>
		<path style="fill:url(#SVGID_00000152230729055132710210000006850723367479640995_);" d="M506,302.62
			c0,18.34-14.86,37.18-33.2,42.1c-18.34,4.91-33.2-5.97-33.2-24.3c0-18.34,14.86-37.18,33.2-42.1
			C491.14,273.41,506,284.29,506,302.62z"/>
		
			<ellipse transform="matrix(0.6585 -0.7526 0.7526 0.6585 -72.9337 462.3165)" class="st1" cx="472.94" cy="311.52" rx="27.81" ry="21.29"/>
		
			<ellipse transform="matrix(0.6585 -0.7526 0.7526 0.6585 -72.9337 462.3165)" class="st15" cx="472.94" cy="311.52" rx="6.94" ry="5.31"/>
	</g>
</g>
</svg>
