<svg width="60" height="60" viewBox="0 0 60 60" fill="none" xmlns="http://www.w3.org/2000/svg">
<path d="M48.624 41.1431C46.6068 41.663 44.5015 41.7645 42.4421 41.4411C40.3828 41.1178 38.4145 40.3766 36.6627 39.2649C34.9109 38.1531 33.4139 36.6951 32.2671 34.9838C31.1203 33.2724 30.3488 31.3452 30.0018 29.3248C29.6547 27.3044 29.7397 25.2351 30.2512 23.2488C30.7628 21.2624 31.6898 19.4025 32.9732 17.7875C34.2566 16.1724 35.8682 14.8377 37.7055 13.8682C39.5428 12.8987 41.5654 12.3157 43.6446 12.1563C40.0195 9.94627 35.8043 8.85257 31.5412 9.01597C27.2782 9.17937 23.1625 10.5924 19.7237 13.0732C16.2849 15.554 13.6805 18.9891 12.2454 22.9364C10.8104 26.8837 10.6105 31.1626 11.6715 35.2224C12.7325 39.2822 15.0057 42.9373 18.1988 45.7171C21.3918 48.497 25.3585 50.2744 29.5883 50.8208C33.8182 51.3672 38.1177 50.6574 41.9336 48.7829C45.7494 46.9084 48.907 43.9548 51 40.3024C50.2351 40.6516 49.4399 40.9329 48.624 41.1431Z" fill="#FFDB7D"/>
</svg>
