<svg width="60" height="60" viewBox="0 0 60 60" fill="none" xmlns="http://www.w3.org/2000/svg">
<path d="M29.502 45.3807C37.8996 45.3807 44.7072 38.641 44.7072 30.3273C44.7072 22.0135 37.8996 15.2739 29.502 15.2739C21.1045 15.2739 14.2969 22.0135 14.2969 30.3273C14.2969 38.641 21.1045 45.3807 29.502 45.3807Z" fill="#FFDB7D"/>
<path d="M31.3121 4.79742C31.3121 3.80473 30.5007 3 29.4998 3C28.4989 3 27.6875 3.80473 27.6875 4.79742V9.50922C27.6875 10.5019 28.4989 11.3066 29.4998 11.3066C30.5007 11.3066 31.3121 10.5019 31.3121 9.50922V4.79742Z" fill="#FFDB7D"/>
<path d="M14.3108 9.62207C13.6663 8.86163 12.5222 8.76152 11.7555 9.39846C10.9888 10.0354 10.8897 11.1682 11.5342 11.9287L14.5934 15.5381C15.2379 16.2985 16.382 16.3987 17.1487 15.7617C17.9155 15.1248 18.0145 13.992 17.37 13.2315L14.3108 9.62207Z" fill="#FFDB7D"/>
<path d="M4.41736 24.1298C3.4299 23.9574 2.48851 24.6088 2.3147 25.5846C2.1409 26.5605 2.8005 27.4913 3.78796 27.6637L8.47496 28.4819C9.46242 28.6543 10.4038 28.0029 10.5776 27.027C10.7514 26.0512 10.0918 25.1204 9.10437 24.948L4.41736 24.1298Z" fill="#FFDB7D"/>
<path d="M6.2561 41.5376C5.38774 42.0339 5.08949 43.132 5.58994 43.9901C6.0904 44.8483 7.20004 45.1416 8.0684 44.6452L12.1901 42.2893C13.0584 41.793 13.3567 40.695 12.8562 39.8368C12.3558 38.9786 11.2461 38.6853 10.3778 39.1817L6.2561 41.5376Z" fill="#FFDB7D"/>
<path d="M18.8781 53.7325C18.5372 54.6656 19.0236 55.6951 19.9644 56.0321C20.9053 56.369 21.9443 55.8856 22.2853 54.9525L23.9034 50.5234C24.2443 49.5903 23.758 48.5607 22.8171 48.2238C21.8763 47.8869 20.8372 48.3702 20.4963 49.3034L18.8781 53.7325Z" fill="#FFDB7D"/>
<path d="M36.6176 54.9294C36.9605 55.8622 38.001 56.3437 38.9415 56.0048C39.8821 55.6659 40.3665 54.6349 40.0236 53.7021L38.3958 49.2745C38.0529 48.3416 37.0124 47.8602 36.0718 48.1991C35.1313 48.538 34.6469 49.5689 34.9898 50.5018L36.6176 54.9294Z" fill="#FFDB7D"/>
<path d="M50.9279 44.6479C51.7963 45.1443 52.9059 44.8509 53.4064 43.9928C53.9068 43.1346 53.6086 42.0366 52.7402 41.5403L48.6185 39.1844C47.7502 38.688 46.6405 38.9813 46.1401 39.8395C45.6396 40.6976 45.9379 41.7957 46.8062 42.292L50.9279 44.6479Z" fill="#FFDB7D"/>
<path d="M55.2125 27.6605C56.2 27.4881 56.8596 26.5573 56.6858 25.5814C56.512 24.6055 55.5706 23.9542 54.5831 24.1266L49.8961 24.9448C48.9087 25.1171 48.2491 26.048 48.4229 27.0238C48.5967 27.9997 49.5381 28.651 50.5255 28.4787L55.2125 27.6605Z" fill="#FFDB7D"/>
<path d="M47.469 11.9281C48.1135 11.1677 48.0144 10.0349 47.2477 9.39792C46.4809 8.76098 45.3369 8.86109 44.6924 9.62153L41.6331 13.231C40.9886 13.9914 41.0877 15.1242 41.8544 15.7612C42.6212 16.3981 43.7652 16.298 44.4097 15.5376L47.469 11.9281Z" fill="#FFDB7D"/>
</svg>
