<svg width="60" height="60" viewBox="0 0 60 60" fill="none" xmlns="http://www.w3.org/2000/svg">
<path d="M42.5739 32.7544C46.6726 32.7544 49.9954 29.4538 49.9954 25.3823C49.9954 21.3108 46.6726 18.0103 42.5739 18.0103C38.4751 18.0103 35.1523 21.3108 35.1523 25.3823C35.1523 29.4538 38.4751 32.7544 42.5739 32.7544Z" fill="#FFDB7D"/>
<path d="M42.7514 12H42.4071C42.014 12 41.6953 12.3166 41.6953 12.7071V15.3615C41.6953 15.752 42.014 16.0686 42.4071 16.0686H42.7514C43.1445 16.0686 43.4632 15.752 43.4632 15.3615V12.7071C43.4632 12.3166 43.1445 12 42.7514 12Z" fill="#FFDB7D"/>
<path d="M34.0473 15.021L33.7836 15.2408C33.4824 15.4918 33.4431 15.9378 33.6958 16.237L35.4135 18.2704C35.6662 18.5695 36.1152 18.6085 36.4163 18.3575L36.68 18.1377C36.9812 17.8867 37.0204 17.4407 36.7678 17.1416L35.0501 15.1082C34.7974 14.809 34.3484 14.77 34.0473 15.021Z" fill="#FFDB7D"/>
<path d="M29.3357 22.8898L29.2759 23.2265C29.2077 23.6111 29.4662 23.9778 29.8533 24.0456L32.485 24.5066C32.8721 24.5744 33.2413 24.3176 33.3096 23.933L33.3693 23.5963C33.4376 23.2117 33.1791 22.845 32.7919 22.7772L30.1603 22.3162C29.7732 22.2484 29.404 22.5052 29.3357 22.8898Z" fill="#FFDB7D"/>
<path d="M30.8196 31.926L30.9917 32.2221C31.1883 32.5603 31.6236 32.6762 31.9641 32.4809L34.2783 31.1537C34.6188 30.9585 34.7354 30.526 34.5388 30.1879L34.3667 29.8917C34.1702 29.5535 33.7348 29.4377 33.3944 29.6329L31.0802 30.9601C30.7397 31.1554 30.6231 31.5878 30.8196 31.926Z" fill="#FFDB7D"/>
<path d="M37.8045 37.9029L38.128 38.0199C38.4974 38.1534 38.9059 37.9642 39.0403 37.5973L39.9543 35.103C40.0887 34.736 39.8983 34.3303 39.5288 34.1967L39.2054 34.0797C38.836 33.9462 38.4275 34.1354 38.293 34.5023L37.3791 36.9967C37.2446 37.3636 37.4351 37.7694 37.8045 37.9029Z" fill="#FFDB7D"/>
<path d="M47.0233 38.015L47.3467 37.8981C47.7162 37.7645 47.9066 37.3588 47.7722 36.9918L46.8582 34.4975C46.7238 34.1305 46.3153 33.9413 45.9459 34.0749L45.6224 34.1918C45.253 34.3254 45.0625 34.7312 45.197 35.0981L46.1109 37.5924C46.2454 37.9594 46.6539 38.1486 47.0233 38.015Z" fill="#FFDB7D"/>
<path d="M54.1634 32.2185L54.3355 31.9224C54.5321 31.5842 54.4154 31.1518 54.075 30.9565L51.7608 29.6293C51.4203 29.4341 50.985 29.5499 50.7884 29.8881L50.6163 30.1843C50.4197 30.5224 50.5364 30.9549 50.8768 31.1501L53.191 32.4773C53.5315 32.6726 53.9668 32.5567 54.1634 32.2185Z" fill="#FFDB7D"/>
<path d="M55.8748 23.2284L55.815 22.8916C55.7467 22.5071 55.3776 22.2503 54.9904 22.3181L52.3588 22.779C51.9716 22.8468 51.7131 23.2136 51.7814 23.5981L51.8412 23.9349C51.9094 24.3195 52.2786 24.5762 52.6658 24.5084L55.2974 24.0475C55.6845 23.9797 55.9431 23.613 55.8748 23.2284Z" fill="#FFDB7D"/>
<path d="M51.3637 15.2358L51.1 15.016C50.7988 14.765 50.3498 14.804 50.0971 15.1032L48.3795 17.1366C48.1268 17.4357 48.1661 17.8817 48.4672 18.1327L48.7309 18.3525C49.0321 18.6035 49.481 18.5645 49.7337 18.2654L51.4514 16.232C51.7041 15.9328 51.6648 15.4868 51.3637 15.2358Z" fill="#FFDB7D"/>
<path d="M13.8043 46.9478C18.6668 46.9478 22.6086 43.0323 22.6086 38.2022C22.6086 33.3721 18.6668 29.4565 13.8043 29.4565C8.94182 29.4565 5 33.3721 5 38.2022C5 43.0323 8.94182 46.9478 13.8043 46.9478Z" fill="#D9D9D9"/>
<path d="M24.2417 38.2022C29.3652 38.2022 33.5186 34.0764 33.5186 28.9871C33.5186 23.8977 29.3652 19.772 24.2417 19.772C19.1183 19.772 14.9648 23.8977 14.9648 28.9871C14.9648 34.0764 19.1183 38.2022 24.2417 38.2022Z" fill="#D9D9D9"/>
<path d="M37.1246 41.5968C41.9871 41.5968 45.9289 37.6812 45.9289 32.8511C45.9289 28.021 41.9871 24.1055 37.1246 24.1055C32.2621 24.1055 28.3203 28.021 28.3203 32.8511C28.3203 37.6812 32.2621 41.5968 37.1246 41.5968Z" fill="#D9D9D9"/>
<path d="M46.9602 46.9999C51.1105 46.9999 54.4751 43.6578 54.4751 39.5351C54.4751 35.4124 51.1105 32.0703 46.9602 32.0703C42.8098 32.0703 39.4453 35.4124 39.4453 39.5351C39.4453 43.6578 42.8098 46.9999 46.9602 46.9999Z" fill="#D9D9D9"/>
<path d="M45.7896 36.9214H13.8047V46.9537H45.7896V36.9214Z" fill="#D9D9D9"/>
</svg>
