<svg width="60" height="60" viewBox="0 0 60 60" fill="none" xmlns="http://www.w3.org/2000/svg">
<path d="M52.6324 27.8057C50.6455 28.3146 48.5376 28.0144 46.7723 26.9711C45.0071 25.9278 43.7291 24.2269 43.2196 22.2425C42.71 20.2581 43.0106 18.1529 44.0552 16.3898C45.0999 14.6268 46.8029 13.3505 48.7898 12.8416C49.2107 12.7359 49.6399 12.6664 50.0726 12.6338C48.21 11.4858 46.0463 10.92 43.8593 11.0091C41.6724 11.0982 39.5621 11.8381 37.7993 13.1339C36.0365 14.4296 34.7017 16.222 33.9663 18.2809C33.2309 20.3399 33.1286 22.5713 33.6723 24.6888C34.216 26.8062 35.3811 28.7131 37.0178 30.1644C38.6546 31.6157 40.6883 32.5453 42.8579 32.8338C45.0275 33.1223 47.234 32.7566 49.1939 31.7835C51.1539 30.8104 52.7779 29.2745 53.8574 27.3729C53.4617 27.5506 53.0519 27.6953 52.6324 27.8057Z" fill="#FFDB7D"/>
<path d="M14.7194 46.9539C19.5351 46.9539 23.4389 43.055 23.4389 38.2455C23.4389 33.436 19.5351 29.5371 14.7194 29.5371C9.90383 29.5371 6 33.436 6 38.2455C6 43.055 9.90383 46.9539 14.7194 46.9539Z" fill="#D9D9D9"/>
<path d="M25.0586 38.2453C30.1327 38.2453 34.2461 34.1371 34.2461 29.0694C34.2461 24.0017 30.1327 19.8936 25.0586 19.8936C19.9845 19.8936 15.8711 24.0017 15.8711 29.0694C15.8711 34.1371 19.9845 38.2453 25.0586 38.2453Z" fill="#D9D9D9"/>
<path d="M37.6765 41.6732C42.4921 41.6732 46.3959 37.7743 46.3959 32.9648C46.3959 28.1552 42.4921 24.2563 37.6765 24.2563C32.8609 24.2563 28.957 28.1552 28.957 32.9648C28.957 37.7743 32.8609 41.6732 37.6765 41.6732Z" fill="#D9D9D9"/>
<path d="M47.5557 46.9998C51.6661 46.9998 54.9982 43.672 54.9982 39.5668C54.9982 35.4617 51.6661 32.1338 47.5557 32.1338C43.4454 32.1338 40.1133 35.4617 40.1133 39.5668C40.1133 43.672 43.4454 46.9998 47.5557 46.9998Z" fill="#D9D9D9"/>
<path d="M46.3953 36.9702H14.7188V46.9598H46.3953V36.9702Z" fill="#D9D9D9"/>
</svg>
