<svg width="60" height="60" viewBox="0 0 60 60" fill="none" xmlns="http://www.w3.org/2000/svg">
<path d="M32.6846 30.7732C35.3538 30.7732 37.5177 28.4999 37.5177 25.6957C37.5177 22.8915 35.3538 20.6182 32.6846 20.6182C30.0154 20.6182 27.8516 22.8915 27.8516 25.6957C27.8516 28.4999 30.0154 30.7732 32.6846 30.7732Z" fill="#ADADAD"/>
<path d="M38.4133 25.7012C41.226 25.7012 43.5062 23.3056 43.5062 20.3506C43.5062 17.3955 41.226 15 38.4133 15C35.6005 15 33.3203 17.3955 33.3203 20.3506C33.3203 23.3056 35.6005 25.7012 38.4133 25.7012Z" fill="#ADADAD"/>
<path d="M45.4034 27.702C48.0726 27.702 50.2364 25.4287 50.2364 22.6244C50.2364 19.8202 48.0726 17.5469 45.4034 17.5469C42.7341 17.5469 40.5703 19.8202 40.5703 22.6244C40.5703 25.4287 42.7341 27.702 45.4034 27.702Z" fill="#ADADAD"/>
<path d="M50.8773 30.805C53.1545 30.805 55.0006 28.8655 55.0006 26.473C55.0006 24.0806 53.1545 22.1411 50.8773 22.1411C48.6 22.1411 46.7539 24.0806 46.7539 26.473C46.7539 28.8655 48.6 30.805 50.8773 30.805Z" fill="#ADADAD"/>
<path d="M50.2365 24.9556H32.6836V30.7787H50.2365V24.9556Z" fill="#ADADAD"/>
<path d="M12.542 42.5037C16.7073 42.5037 20.0839 38.9562 20.0839 34.5802C20.0839 30.2042 16.7073 26.6567 12.542 26.6567C8.37666 26.6567 5 30.2042 5 34.5802C5 38.9562 8.37666 42.5037 12.542 42.5037Z" fill="#D9D9D9"/>
<path d="M21.482 34.5804C25.8709 34.5804 29.4288 30.8425 29.4288 26.2316C29.4288 21.6207 25.8709 17.8828 21.482 17.8828C17.0931 17.8828 13.5352 21.6207 13.5352 26.2316C13.5352 30.8425 17.0931 34.5804 21.482 34.5804Z" fill="#D9D9D9"/>
<path d="M32.3974 37.7044C36.5628 37.7044 39.9394 34.1569 39.9394 29.7809C39.9394 25.4049 36.5628 21.8574 32.3974 21.8574C28.2321 21.8574 24.8555 25.4049 24.8555 29.7809C24.8555 34.1569 28.2321 37.7044 32.3974 37.7044Z" fill="#D9D9D9"/>
<path d="M40.9452 42.551C44.5005 42.551 47.3826 39.5231 47.3826 35.788C47.3826 32.0528 44.5005 29.0249 40.9452 29.0249C37.3899 29.0249 34.5078 32.0528 34.5078 35.788C34.5078 39.5231 37.3899 42.551 40.9452 42.551Z" fill="#D9D9D9"/>
<path d="M39.942 33.4199H12.543V42.5091H39.942V33.4199Z" fill="#D9D9D9"/>
</svg>
