<svg width="60" height="60" viewBox="0 0 60 60" fill="none" xmlns="http://www.w3.org/2000/svg">
<path d="M13.8974 43.4981C18.8113 43.4981 22.7949 39.5361 22.7949 34.6487C22.7949 29.7613 18.8113 25.7993 13.8974 25.7993C8.98351 25.7993 5 29.7613 5 34.6487C5 39.5361 8.98351 43.4981 13.8974 43.4981Z" fill="#D9D9D9"/>
<path d="M24.4453 34.6488C29.623 34.6488 33.8204 30.4741 33.8204 25.3244C33.8204 20.1747 29.623 16 24.4453 16C19.2677 16 15.0703 20.1747 15.0703 25.3244C15.0703 30.4741 19.2677 34.6488 24.4453 34.6488Z" fill="#D9D9D9"/>
<path d="M37.3232 38.1383C42.2371 38.1383 46.2206 34.1762 46.2206 29.2889C46.2206 24.4015 42.2371 20.4395 37.3232 20.4395C32.4093 20.4395 28.4258 24.4015 28.4258 29.2889C28.4258 34.1762 32.4093 38.1383 37.3232 38.1383Z" fill="#D9D9D9"/>
<path d="M47.4069 43.5511C51.6011 43.5511 55.0012 40.1693 55.0012 35.9977C55.0012 31.8261 51.6011 28.4443 47.4069 28.4443C43.2126 28.4443 39.8125 31.8261 39.8125 35.9977C39.8125 40.1693 43.2126 43.5511 47.4069 43.5511Z" fill="#D9D9D9"/>
<path d="M46.2216 33.353H13.8984V43.5043H46.2216V33.353Z" fill="#D9D9D9"/>
</svg>
