<svg width="60" height="60" viewBox="0 0 60 60" fill="none" xmlns="http://www.w3.org/2000/svg">
<path d="M19.0694 36.3916C19.169 35.8383 18.803 35.3086 18.2519 35.2085C17.7007 35.1085 17.1731 35.4759 17.0734 36.0293L15.5494 44.4905C15.4498 45.0438 15.8158 45.5735 16.3669 45.6736C16.9181 45.7736 17.4457 45.4062 17.5454 44.8528L19.0694 36.3916Z" fill="#548AB8"/>
<path d="M25.9209 36.3838C26.0206 35.8305 25.6546 35.3008 25.1034 35.2007C24.5523 35.1006 24.0247 35.4681 23.925 36.0214L21.5925 48.9712C21.4929 49.5246 21.8589 50.0543 22.41 50.1543C22.9612 50.2544 23.4888 49.8869 23.5885 49.3336L25.9209 36.3838Z" fill="#548AB8"/>
<path d="M32.1905 36.3814C32.2901 35.828 31.9241 35.2983 31.373 35.1983C30.8218 35.0982 30.2942 35.4657 30.1945 36.019L27.2016 52.6358C27.1019 53.1892 27.4679 53.7189 28.0191 53.8189C28.5702 53.919 29.0978 53.5515 29.1975 52.9982L32.1905 36.3814Z" fill="#548AB8"/>
<path d="M38.7466 36.3302C38.8474 35.7791 38.4842 35.2503 37.9353 35.1491C37.3864 35.0479 36.8597 35.4126 36.7589 35.9636L34.3994 48.8602C34.2986 49.4113 34.6619 49.9401 35.2108 50.0413C35.7597 50.1425 36.2864 49.7779 36.3872 49.2268L38.7466 36.3302Z" fill="#548AB8"/>
<path d="M45.5577 36.3945C45.6573 35.8412 45.2913 35.3115 44.7402 35.2114C44.189 35.1114 43.6614 35.4788 43.5617 36.0322L42.0377 44.4934C41.9381 45.0467 42.3041 45.5764 42.8552 45.6765C43.4064 45.7765 43.934 45.4091 44.0337 44.8557L45.5577 36.3945Z" fill="#548AB8"/>
<path d="M16.6518 31.871C20.8778 31.871 24.3036 28.4316 24.3036 24.1889C24.3036 19.9462 20.8778 16.5068 16.6518 16.5068C12.4258 16.5068 9 19.9462 9 24.1889C9 28.4316 12.4258 31.871 16.6518 31.871Z" fill="#D9D9D9"/>
<path d="M25.7227 24.1889C30.1755 24.1889 33.7852 20.5649 33.7852 16.0944C33.7852 11.624 30.1755 8 25.7227 8C21.2699 8 17.6602 11.624 17.6602 16.0944C17.6602 20.5649 21.2699 24.1889 25.7227 24.1889Z" fill="#D9D9D9"/>
<path d="M36.7963 27.2181C41.0223 27.2181 44.4481 23.7788 44.4481 19.5361C44.4481 15.2934 41.0223 11.854 36.7963 11.854C32.5704 11.854 29.1445 15.2934 29.1445 19.5361C29.1445 23.7788 32.5704 27.2181 36.7963 27.2181Z" fill="#D9D9D9"/>
<path d="M45.4686 31.9167C49.0757 31.9167 51.9998 28.9811 51.9998 25.3597C51.9998 21.7384 49.0757 18.8027 45.4686 18.8027C41.8616 18.8027 38.9375 21.7384 38.9375 25.3597C38.9375 28.9811 41.8616 31.9167 45.4686 31.9167Z" fill="#D9D9D9"/>
<path d="M44.4503 23.064H16.6523V31.8762H44.4503V23.064Z" fill="#D9D9D9"/>
</svg>
