<svg width="60" height="60" viewBox="0 0 60 60" fill="none" xmlns="http://www.w3.org/2000/svg">
<path d="M24.4913 37.9736C24.5909 37.4282 24.2249 36.9061 23.6737 36.8075C23.1226 36.7089 22.595 37.071 22.4953 37.6164L20.9488 46.0795C20.8491 46.6249 21.2151 47.147 21.7663 47.2456C22.3174 47.3442 22.845 46.982 22.9447 46.4367L24.4913 37.9736Z" fill="#548AB8"/>
<path d="M30.6983 37.9916C30.798 37.4462 30.4319 36.9242 29.8808 36.8255C29.3296 36.7269 28.802 37.0891 28.7024 37.6345L26.6884 48.6553C26.5887 49.2006 26.9547 49.7227 27.5059 49.8213C28.0571 49.92 28.5847 49.5578 28.6843 49.0124L30.6983 37.9916Z" fill="#548AB8"/>
<path d="M37.3663 37.9775C37.4659 37.4321 37.0999 36.91 36.5487 36.8114C35.9976 36.7128 35.47 37.0749 35.3703 37.6203L33.8238 46.0834C33.7241 46.6288 34.0901 47.1509 34.6413 47.2495C35.1924 47.3481 35.72 46.986 35.8197 46.4406L37.3663 37.9775Z" fill="#548AB8"/>
<path d="M15.6518 33.5282C19.8778 33.5282 23.3036 30.1382 23.3036 25.9565C23.3036 21.7747 19.8778 18.3848 15.6518 18.3848C11.4258 18.3848 8 21.7747 8 25.9565C8 30.1382 11.4258 33.5282 15.6518 33.5282Z" fill="#D9D9D9"/>
<path d="M24.7227 25.9563C29.1755 25.9563 32.7852 22.3843 32.7852 17.9781C32.7852 13.5719 29.1755 10 24.7227 10C20.2699 10 16.6602 13.5719 16.6602 17.9781C16.6602 22.3843 20.2699 25.9563 24.7227 25.9563Z" fill="#D9D9D9"/>
<path d="M35.7963 28.9417C40.0223 28.9417 43.4481 25.5518 43.4481 21.37C43.4481 17.1883 40.0223 13.7983 35.7963 13.7983C31.5704 13.7983 28.1445 17.1883 28.1445 21.37C28.1445 25.5518 31.5704 28.9417 35.7963 28.9417Z" fill="#D9D9D9"/>
<path d="M44.4686 33.573C48.0757 33.573 50.9998 30.6796 50.9998 27.1103C50.9998 23.541 48.0757 20.6475 44.4686 20.6475C40.8616 20.6475 37.9375 23.541 37.9375 27.1103C37.9375 30.6796 40.8616 33.573 44.4686 33.573Z" fill="#D9D9D9"/>
<path d="M43.4503 24.8472H15.6523V33.5328H43.4503V24.8472Z" fill="#D9D9D9"/>
</svg>
