<svg width="60" height="60" viewBox="0 0 60 60" fill="none" xmlns="http://www.w3.org/2000/svg">
<path d="M14.355 38.4946C15.1335 38.4946 15.7647 37.861 15.7647 37.0793C15.7647 36.2977 15.1335 35.6641 14.355 35.6641C13.5764 35.6641 12.9453 36.2977 12.9453 37.0793C12.9453 37.861 13.5764 38.4946 14.355 38.4946Z" fill="#C2D5E6"/>
<path d="M21.812 46.6914C22.5906 46.6914 23.2217 46.0578 23.2217 45.2761C23.2217 44.4945 22.5906 43.8608 21.812 43.8608C21.0335 43.8608 20.4023 44.4945 20.4023 45.2761C20.4023 46.0578 21.0335 46.6914 21.812 46.6914Z" fill="#C2D5E6"/>
<path d="M26.0073 38.7188C26.7859 38.7188 27.417 38.0851 27.417 37.3035C27.417 36.5218 26.7859 35.8882 26.0073 35.8882C25.2288 35.8882 24.5977 36.5218 24.5977 37.3035C24.5977 38.0851 25.2288 38.7188 26.0073 38.7188Z" fill="#C2D5E6"/>
<path d="M37.7456 38.4946C38.5242 38.4946 39.1553 37.861 39.1553 37.0793C39.1553 36.2977 38.5242 35.6641 37.7456 35.6641C36.9671 35.6641 36.3359 36.2977 36.3359 37.0793C36.3359 37.861 36.9671 38.4946 37.7456 38.4946Z" fill="#C2D5E6"/>
<path d="M33.8394 46.6914C34.6179 46.6914 35.249 46.0578 35.249 45.2761C35.249 44.4945 34.6179 43.8608 33.8394 43.8608C33.0608 43.8608 32.4297 44.4945 32.4297 45.2761C32.4297 46.0578 33.0608 46.6914 33.8394 46.6914Z" fill="#C2D5E6"/>
<path d="M45.5269 46.6914C46.3054 46.6914 46.9365 46.0578 46.9365 45.2761C46.9365 44.4945 46.3054 43.8608 45.5269 43.8608C44.7483 43.8608 44.1172 44.4945 44.1172 45.2761C44.1172 46.0578 44.7483 46.6914 45.5269 46.6914Z" fill="#C2D5E6"/>
<path d="M20.3819 36.3931C20.4815 35.8398 20.1155 35.3101 19.5644 35.21C19.0132 35.1099 18.4856 35.4774 18.3859 36.0307L16.8619 44.4921C16.7623 45.0455 17.1283 45.5752 17.6794 45.6753C18.2306 45.7753 18.7582 45.4079 18.8579 44.8545L20.3819 36.3931Z" fill="#E9EDF6"/>
<path d="M31.7022 36.3809C31.8019 35.8275 31.4358 35.2978 30.8847 35.1978C30.3335 35.0977 29.8059 35.4652 29.7063 36.0185L26.7133 52.6357C26.6136 53.1891 26.9796 53.7188 27.5308 53.8189C28.082 53.9189 28.6096 53.5515 28.7092 52.9981L31.7022 36.3809Z" fill="#E9EDF6"/>
<path d="M42.9561 36.3941C43.0558 35.8407 42.6898 35.311 42.1386 35.211C41.5874 35.1109 41.0598 35.4784 40.9602 36.0317L39.4362 44.4931C39.3365 45.0465 39.7025 45.5762 40.2537 45.6762C40.8048 45.7763 41.3324 45.4088 41.4321 44.8555L42.9561 36.3941Z" fill="#E9EDF6"/>
<path d="M15.6518 31.8713C19.8778 31.8713 23.3036 28.4319 23.3036 24.1891C23.3036 19.9463 19.8778 16.5068 15.6518 16.5068C11.4258 16.5068 8 19.9463 8 24.1891C8 28.4319 11.4258 31.8713 15.6518 31.8713Z" fill="#D9D9D9"/>
<path d="M24.7227 24.1892C29.1755 24.1892 32.7852 20.5651 32.7852 16.0946C32.7852 11.6241 29.1755 8 24.7227 8C20.2699 8 16.6602 11.6241 16.6602 16.0946C16.6602 20.5651 20.2699 24.1892 24.7227 24.1892Z" fill="#D9D9D9"/>
<path d="M35.7963 27.2185C40.0223 27.2185 43.4481 23.779 43.4481 19.5363C43.4481 15.2935 40.0223 11.854 35.7963 11.854C31.5704 11.854 28.1445 15.2935 28.1445 19.5363C28.1445 23.779 31.5704 27.2185 35.7963 27.2185Z" fill="#D9D9D9"/>
<path d="M44.4686 31.9175C48.0757 31.9175 50.9998 28.9818 50.9998 25.3604C50.9998 21.739 48.0757 18.8032 44.4686 18.8032C40.8616 18.8032 37.9375 21.739 37.9375 25.3604C37.9375 28.9818 40.8616 31.9175 44.4686 31.9175Z" fill="#D9D9D9"/>
<path d="M43.4503 23.064H15.6523V31.8764H43.4503V23.064Z" fill="#D9D9D9"/>
</svg>
