<svg width="60" height="60" viewBox="0 0 60 60" fill="none" xmlns="http://www.w3.org/2000/svg">
<path d="M43.4151 40.8102C44.2118 40.8102 44.8576 40.1715 44.8576 39.3836C44.8576 38.5957 44.2118 37.957 43.4151 37.957C42.6185 37.957 41.9727 38.5957 41.9727 39.3836C41.9727 40.1715 42.6185 40.8102 43.4151 40.8102Z" fill="#C2D5E6"/>
<path d="M35.7823 49.0001C36.5789 49.0001 37.2248 48.3614 37.2248 47.5736C37.2248 46.7857 36.5789 46.147 35.7823 46.147C34.9857 46.147 34.3398 46.7857 34.3398 47.5736C34.3398 48.3614 34.9857 49.0001 35.7823 49.0001Z" fill="#C2D5E6"/>
<path d="M31.4464 40.8102C32.243 40.8102 32.8888 40.1715 32.8888 39.3836C32.8888 38.5957 32.243 37.957 31.4464 37.957C30.6497 37.957 30.0039 38.5957 30.0039 39.3836C30.0039 40.1715 30.6497 40.8102 31.4464 40.8102Z" fill="#C2D5E6"/>
<path d="M19.4815 40.8102C20.2782 40.8102 20.924 40.1715 20.924 39.3836C20.924 38.5957 20.2782 37.957 19.4815 37.957C18.6849 37.957 18.0391 38.5957 18.0391 39.3836C18.0391 40.1715 18.6849 40.8102 19.4815 40.8102Z" fill="#C2D5E6"/>
<path d="M23.6456 49.0001C24.4422 49.0001 25.088 48.3614 25.088 47.5736C25.088 46.7857 24.4422 46.147 23.6456 46.147C22.8489 46.147 22.2031 46.7857 22.2031 47.5736C22.2031 48.3614 22.8489 49.0001 23.6456 49.0001Z" fill="#C2D5E6"/>
<path d="M11.5167 49.0001C12.3133 49.0001 12.9591 48.3614 12.9591 47.5736C12.9591 46.7857 12.3133 46.147 11.5167 46.147C10.72 46.147 10.0742 46.7857 10.0742 47.5736C10.0742 48.3614 10.72 49.0001 11.5167 49.0001Z" fill="#C2D5E6"/>
<path d="M16.8297 34.0618C21.154 34.0618 24.6595 30.5949 24.6595 26.3183C24.6595 22.0416 21.154 18.5747 16.8297 18.5747C12.5055 18.5747 9 22.0416 9 26.3183C9 30.5949 12.5055 34.0618 16.8297 34.0618Z" fill="#D9D9D9"/>
<path d="M26.1133 26.3184C30.6697 26.3184 34.3633 22.6654 34.3633 18.1592C34.3633 13.653 30.6697 10 26.1133 10C21.5569 10 17.8633 13.653 17.8633 18.1592C17.8633 22.6654 21.5569 26.3184 26.1133 26.3184Z" fill="#D9D9D9"/>
<path d="M37.443 29.3719C41.7673 29.3719 45.2728 25.905 45.2728 21.6283C45.2728 17.3517 41.7673 13.8848 37.443 13.8848C33.1188 13.8848 29.6133 17.3517 29.6133 21.6283C29.6133 25.905 33.1188 29.3719 37.443 29.3719Z" fill="#D9D9D9"/>
<path d="M46.3158 34.1081C50.0068 34.1081 52.9989 31.1489 52.9989 27.4986C52.9989 23.8483 50.0068 20.8892 46.3158 20.8892C42.6249 20.8892 39.6328 23.8483 39.6328 27.4986C39.6328 31.1489 42.6249 34.1081 46.3158 34.1081Z" fill="#D9D9D9"/>
<path d="M45.2725 25.1846H16.8281V34.0673H45.2725V25.1846Z" fill="#D9D9D9"/>
</svg>
