<svg xmlns="http://www.w3.org/2000/svg" xmlns:xlink="http://www.w3.org/1999/xlink" width="20" height="19.999" viewBox="0 0 20 19.999">
  <defs>
    <clipPath id="clip-path">
      <rect id="사각형_99" data-name="사각형 99" width="20" height="19.999" fill="#868686"/>
    </clipPath>
  </defs>
  <g id="그룹_104" data-name="그룹 104" transform="translate(0 0)">
    <g id="그룹_103" data-name="그룹 103" transform="translate(0 0)" clip-path="url(#clip-path)">
      <path id="패스_110" data-name="패스 110" d="M19.321,16.025a2.33,2.33,0,0,1-3.295,3.3L10,13.295,3.975,19.32A2.334,2.334,0,0,1,.68,19.315a2.329,2.329,0,0,1,0-3.29L6.706,10,.68,3.974a2.332,2.332,0,0,1,0-3.29V.679a2.339,2.339,0,0,1,3.295,0L10,6.7,16.026.679a2.339,2.339,0,0,1,3.295,0V.684a2.332,2.332,0,0,1,0,3.29L13.3,10Z" transform="translate(0 0)" fill="#868686"/>
    </g>
  </g>
</svg>
