<svg width="32" height="32" viewBox="0 0 32 32" fill="none" xmlns="http://www.w3.org/2000/svg">
<path fill-rule="evenodd" clip-rule="evenodd" d="M15.4406 12.4H15.6448C15.6285 12.369 15.6125 12.3379 15.5968 12.3066C15.5453 12.3385 15.4932 12.3696 15.4406 12.4ZM27.0667 18.9277C27.0909 18.9281 27.1152 18.9283 27.1395 18.9283C29.8239 18.9283 31.9999 16.7522 31.9999 14.0679C31.9999 11.3836 29.8239 9.2075 27.1395 9.2075C26.8746 9.2075 26.6145 9.22871 26.3611 9.26951C26.1167 6.34992 23.6695 4.05659 20.6868 4.05659C19.6872 4.05659 18.7478 4.31413 17.9313 4.76648C16.9979 2.66529 14.8927 1.19995 12.4453 1.19995C9.1316 1.19995 6.44531 3.88624 6.44531 7.19995C6.44531 7.31951 6.44881 7.43825 6.45571 7.55607C6.20665 7.5228 5.9525 7.50562 5.69434 7.50562C2.54944 7.50562 0 10.0551 0 13.2C0 16.3449 2.54944 18.8943 5.69434 18.8943C5.70735 18.8943 5.72035 18.8943 5.73333 18.8942V18.9333H27.0667V18.9277Z" fill="#D9D9D9"/>
<path fill-rule="evenodd" clip-rule="evenodd" d="M16.7452 20.6367C17.1442 20.7062 17.4112 21.086 17.3417 21.485L15.6455 31.3184C15.576 31.7174 15.1962 31.9845 14.7972 31.9149C14.3982 31.8454 14.1311 31.4656 14.2007 31.0666L15.8968 21.2332C15.9663 20.8342 16.3462 20.5671 16.7452 20.6367Z" fill="#548AB8"/>
<path fill-rule="evenodd" clip-rule="evenodd" d="M21.5937 21.1274C21.9927 21.197 22.2598 21.5768 22.1903 21.9758L20.7119 30.4591C20.6424 30.8581 20.2625 31.1252 19.8635 31.0557C19.4645 30.9861 19.1975 30.6063 19.267 30.2073L20.7454 21.724C20.8149 21.325 21.1947 21.0579 21.5937 21.1274Z" fill="#548AB8"/>
<path fill-rule="evenodd" clip-rule="evenodd" d="M11.8867 21.1274C12.2857 21.197 12.5528 21.5768 12.4832 21.9758L11.0049 30.4591C10.9353 30.8581 10.5555 31.1252 10.1565 31.0557C9.75752 30.9861 9.49043 30.6063 9.55997 30.2073L11.0383 21.724C11.1079 21.325 11.4877 21.0579 11.8867 21.1274Z" fill="#548AB8"/>
<path fill-rule="evenodd" clip-rule="evenodd" d="M7.12078 21.1274C7.51978 21.1969 7.78686 21.5767 7.71733 21.9757L6.69205 27.8591C6.62252 28.2581 6.2427 28.5251 5.8437 28.4556C5.44471 28.3861 5.17763 28.0063 5.24716 27.6073L6.27244 21.7239C6.34197 21.3249 6.72179 21.0578 7.12078 21.1274Z" fill="#548AB8"/>
<path fill-rule="evenodd" clip-rule="evenodd" d="M26.527 21.1274C26.926 21.1969 27.1931 21.5767 27.1236 21.9757L26.0983 27.8591C26.0288 28.2581 25.6489 28.5251 25.25 28.4556C24.851 28.3861 24.5839 28.0063 24.6534 27.6073L25.6787 21.7239C25.7482 21.3249 26.128 21.0578 26.527 21.1274Z" fill="#548AB8"/>
</svg>
