<svg width="319" height="56" viewBox="0 0 319 56" fill="none" xmlns="http://www.w3.org/2000/svg">
<rect width="319" height="56" rx="5" fill="#54B877"/>
<path d="M138.204 22.576C139.164 22.576 139.959 22.672 140.588 22.864C141.217 23.0453 141.681 23.344 141.98 23.76C142.289 24.176 142.444 24.736 142.444 25.44C142.444 25.8773 142.369 26.272 142.22 26.624C142.071 26.976 141.857 27.264 141.58 27.488C141.313 27.712 141.004 27.8613 140.652 27.936V28.016C141.015 28.0907 141.356 28.2293 141.676 28.432C141.996 28.624 142.252 28.9067 142.444 29.28C142.636 29.6427 142.732 30.1227 142.732 30.72C142.732 31.4133 142.572 32.0053 142.252 32.496C141.943 32.9867 141.495 33.36 140.908 33.616C140.321 33.872 139.623 34 138.812 34H134.844V22.576H138.204ZM138.396 27.232C139.089 27.232 139.569 27.104 139.836 26.848C140.103 26.592 140.236 26.2133 140.236 25.712C140.236 25.2 140.076 24.832 139.756 24.608C139.447 24.384 138.951 24.272 138.268 24.272H136.988V27.232H138.396ZM136.988 28.88V32.288H138.556C139.281 32.288 139.783 32.128 140.06 31.808C140.348 31.488 140.492 31.0613 140.492 30.528C140.492 30.1867 140.428 29.8933 140.3 29.648C140.183 29.4027 139.98 29.216 139.692 29.088C139.404 28.9493 139.004 28.88 138.492 28.88H136.988ZM152.076 25.328V34H150.444L150.172 32.88H150.06C149.889 33.1787 149.671 33.424 149.404 33.616C149.137 33.7973 148.844 33.9307 148.524 34.016C148.204 34.112 147.873 34.16 147.532 34.16C146.935 34.16 146.417 34.048 145.98 33.824C145.543 33.6 145.201 33.2587 144.956 32.8C144.721 32.3307 144.604 31.728 144.604 30.992V25.328H146.732V30.592C146.732 31.232 146.839 31.7173 147.052 32.048C147.276 32.368 147.628 32.528 148.108 32.528C148.588 32.528 148.961 32.416 149.228 32.192C149.505 31.9573 149.697 31.6213 149.804 31.184C149.911 30.7467 149.964 30.208 149.964 29.568V25.328H152.076ZM157.794 32.544C158.029 32.544 158.253 32.5227 158.466 32.48C158.69 32.4267 158.898 32.368 159.09 32.304V33.808C158.866 33.904 158.594 33.984 158.274 34.048C157.954 34.1227 157.597 34.16 157.202 34.16C156.711 34.16 156.274 34.08 155.89 33.92C155.506 33.7493 155.202 33.4613 154.978 33.056C154.765 32.6507 154.658 32.0853 154.658 31.36V26.848H153.57V25.968L154.786 25.264L155.426 23.424H156.77V25.328H159.01V26.848H156.77V31.344C156.77 31.7493 156.861 32.0533 157.042 32.256C157.234 32.448 157.485 32.544 157.794 32.544ZM164.06 32.544C164.294 32.544 164.518 32.5227 164.732 32.48C164.956 32.4267 165.164 32.368 165.356 32.304V33.808C165.132 33.904 164.86 33.984 164.54 34.048C164.22 34.1227 163.862 34.16 163.468 34.16C162.977 34.16 162.54 34.08 162.156 33.92C161.772 33.7493 161.468 33.4613 161.244 33.056C161.03 32.6507 160.924 32.0853 160.924 31.36V26.848H159.836V25.968L161.052 25.264L161.692 23.424H163.036V25.328H165.276V26.848H163.036V31.344C163.036 31.7493 163.126 32.0533 163.308 32.256C163.5 32.448 163.75 32.544 164.06 32.544ZM174.389 29.648C174.389 30.3733 174.299 31.0133 174.117 31.568C173.936 32.1227 173.669 32.5973 173.317 32.992C172.976 33.376 172.56 33.6693 172.069 33.872C171.579 34.064 171.029 34.16 170.421 34.16C169.856 34.16 169.328 34.064 168.837 33.872C168.357 33.6693 167.941 33.376 167.589 32.992C167.248 32.5973 166.981 32.1227 166.789 31.568C166.597 31.0133 166.501 30.3733 166.501 29.648C166.501 28.688 166.656 27.8773 166.965 27.216C167.285 26.544 167.744 26.0373 168.341 25.696C168.939 25.344 169.648 25.168 170.469 25.168C171.237 25.168 171.915 25.344 172.501 25.696C173.088 26.0373 173.547 26.544 173.877 27.216C174.219 27.8773 174.389 28.688 174.389 29.648ZM168.661 29.648C168.661 30.256 168.725 30.7787 168.853 31.216C168.981 31.6427 169.173 31.968 169.429 32.192C169.696 32.416 170.037 32.528 170.453 32.528C170.869 32.528 171.205 32.416 171.461 32.192C171.728 31.968 171.92 31.6427 172.037 31.216C172.165 30.7787 172.229 30.256 172.229 29.648C172.229 29.0293 172.165 28.512 172.037 28.096C171.909 27.6693 171.712 27.3493 171.445 27.136C171.189 26.912 170.853 26.8 170.437 26.8C169.808 26.8 169.355 27.0453 169.077 27.536C168.8 28.0267 168.661 28.7307 168.661 29.648ZM180.806 25.168C181.712 25.168 182.427 25.4187 182.95 25.92C183.472 26.4213 183.734 27.232 183.734 28.352V34H181.606V28.752C181.606 28.1013 181.494 27.616 181.27 27.296C181.046 26.9653 180.694 26.8 180.214 26.8C179.499 26.8 179.014 27.056 178.758 27.568C178.502 28.0693 178.374 28.8 178.374 29.76V34H176.246V25.328H177.878L178.182 26.464H178.262C178.454 26.1653 178.678 25.92 178.934 25.728C179.19 25.536 179.478 25.3973 179.798 25.312C180.118 25.216 180.454 25.168 180.806 25.168Z" fill="white"/>
</svg>
