<svg id="그룹_57" data-name="그룹 57" xmlns="http://www.w3.org/2000/svg" xmlns:xlink="http://www.w3.org/1999/xlink" width="240.674" height="520.46" viewBox="0 0 240.674 520.46">
  <defs>
    <clipPath id="clip-path">
      <rect id="사각형_67" data-name="사각형 67" width="240.672" height="520.46" fill="none"/>
    </clipPath>
  </defs>
  <rect id="사각형_63" data-name="사각형 63" width="240.665" height="200.685" transform="translate(0.009 135.338)" fill="#fff9bd"/>
  <path id="패스_70" data-name="패스 70" d="M94.567,155.012,71.839,135.327,49.1,155.012,21.056,130.737l10.483-12.11,17.563,15.2,22.738-19.685,22.728,19.685,33.617-29.1,10.483,12.11Z" transform="translate(27.455 136.556)" fill="#036b57"/>
  <path id="패스_71" data-name="패스 71" d="M61.02,58.74v.092l.115-.092Z" transform="translate(79.566 76.594)" fill="#036b57"/>
  <path id="패스_72" data-name="패스 72" d="M61.02,58.74v.092l.115-.092Z" transform="translate(79.566 76.594)" fill="#036b57"/>
  <g id="그룹_55" data-name="그룹 55">
    <g id="그룹_54" data-name="그룹 54" clip-path="url(#clip-path)">
      <path id="패스_73" data-name="패스 73" d="M170.837,270.332v16.911a110.718,110.718,0,0,1,27.532-3.387c1.451,0,2.88.046,4.308.069,30.043,1.129,28.8,46.355-1.265,46.355h-52.6a23.726,23.726,0,0,1-23.731-23.731V275.884q-4.731.1-9.469,0V306.55A23.726,23.726,0,0,1,91.881,330.28H39.259c-30.043,0-31.311-45.226-1.244-46.355,1.405-.023,2.857-.069,4.308-.069a110.532,110.532,0,0,1,27.509,3.387V270.332q-5.737-1.279-11.451-2.88C23.615,257.729,0,225.4,0,189.3V145.85H240.672v43.406A81.721,81.721,0,0,1,179.915,268.1c-3.018.806-6.036,1.544-9.078,2.235" transform="translate(0 190.179)" fill="#036b57"/>
      <path id="패스_74" data-name="패스 74" d="M202.642,168.28V135.333l-62.068,53.751V135.425l.115-.092h-.115v.092L102.651,168.28V135.333L56.157,175.606V135.333L.01,183.969V135.333L120.345,0,240.657,135.333Z" transform="translate(0.014)" fill="#036b57"/>
      <path id="패스_75" data-name="패스 75" d="M60.978,108.341A17.174,17.174,0,1,1,43.8,91.167a17.173,17.173,0,0,1,17.174,17.174" transform="translate(34.725 118.876)" fill="#036b57"/>
      <path id="패스_76" data-name="패스 76" d="M78.453,108.341A17.174,17.174,0,1,1,61.28,91.167a17.173,17.173,0,0,1,17.174,17.174" transform="translate(57.511 118.876)" fill="#036b57"/>
      <rect id="사각형_64" data-name="사각형 64" width="240.651" height="3.214" transform="translate(0.021 348.353)" fill="#73d89c"/>
      <rect id="사각형_65" data-name="사각형 65" width="240.651" height="3.214" transform="translate(0.021 362.301)" fill="#73d89c"/>
      <rect id="사각형_66" data-name="사각형 66" width="240.651" height="3.214" transform="translate(0.021 376.247)" fill="#73d89c"/>
      <path id="패스_77" data-name="패스 77" d="M153.192,37.963A424.805,424.805,0,0,1,88.709,42.85a424.062,424.062,0,0,1-64.448-4.887L34.484,26.487a419.716,419.716,0,0,0,108.486,0Z" transform="translate(31.635 34.537)" fill="#fff9bd"/>
    </g>
  </g>
</svg>
