<svg xmlns="http://www.w3.org/2000/svg" viewBox="0 0 499.76 540" xmlns:v="https://vecta.io/nano"><linearGradient id="A" gradientUnits="userSpaceOnUse" x1="156.174" y1="90.183" x2="468.528" y2="270.52"><stop offset="0" stop-color="#0041bf"/><stop offset="1" stop-color="#2865d1"/></linearGradient><path d="M124.94 144.28L374.82 0l124.94 216.42L249.88 360.7z" fill="url(#A)"/><linearGradient id="B" gradientUnits="userSpaceOnUse" x1="25.102" y1="208.982" x2="218.982" y2="544.793"><stop offset="0" stop-color="#ddd"/><stop offset=".999" stop-color="#fff"/></linearGradient><path d="M227.28 347.63V540L15.69 417.85V225.48l106.91-72.79z" fill="url(#B)"/><linearGradient id="C" gradientUnits="userSpaceOnUse" x1="206.129" y1="518.846" x2="497.78" y2="227.195"><stop offset="0" stop-color="#b5b5b5"/><stop offset="1" stop-color="#efefef"/></linearGradient><path d="M227.28 540l263.01-155.25 1.39-163.66-241.8 139.61-22.6-13.07z" fill="url(#C)"/><linearGradient id="D" gradientUnits="userSpaceOnUse" x1="333.174" y1="185.779" x2="374.821" y2="185.779"><stop offset="0" stop-color="#b5b5b5"/><stop offset="1" stop-color="#efefef"/></linearGradient><path d="M374.82 125.66l-41.65 24.05v96.19l41.65-24.05z" fill="url(#D)"/><linearGradient id="E" gradientUnits="userSpaceOnUse" x1="291.528" y1="185.779" x2="333.174" y2="185.779"><stop offset="0" stop-color="#ddd"/><stop offset=".999" stop-color="#fff"/></linearGradient><path d="M291.53 125.66v96.19l41.64 24.05v-96.19z" fill="url(#E)"/><path d="M333.17 101.61l-41.64 24.05 41.64 24.05 41.65-24.05z" fill="#f3f8ff"/><linearGradient id="F" gradientUnits="userSpaceOnUse" x1="308.919" y1="111.662" x2="341.265" y2="130.337"><stop offset="0" stop-color="#686868"/><stop offset=".393" stop-color="#6b6b6b"/><stop offset=".685" stop-color="#747474"/><stop offset=".944" stop-color="#848484"/><stop offset="1" stop-color="#898989"/></linearGradient><path d="M333.18 106.99v37.35l-32.35-18.67z" fill="url(#F)"/><path d="M365.52 125.67l-32.34 18.67v-37.35z" fill="#aaa"/><path d="M73.97 451.51v-96.19l64.37 37.17v96.19z" fill="#2865d1"/><path d="M0 216.42l124.94-72.14L249.88 360.7l-22.6-13.07-105.66-181.09-105.93 58.94z" fill="#4875d8"/><ellipse transform="matrix(.7375 -.6753 .6753 .7375 -258.3133 198.259)" cx="125.88" cy="431.42" rx="2.92" ry="3.48" fill="#efefef"/><path d="M113.49 212.13L53 247.05l120.97 69.85z" fill="#9abcf7"/><g fill="#4b87e0"><path d="M113.49 212.13v69.8l2.3 1.38v-67.2z"/><path d="M73.07 235.47l77.6 41.06-2.42-4.18L75.1 234.3z"/></g><path d="M314.99 359.03v84.35l101.07-58.36v-84.36z" fill="#f3f9ff"/><path d="M320.13 363.29v69.89l90.78-52.42v-69.89z" fill="#3d83e8"/><path d="M327.79 364.26l10.46-5.84 65.57 21.39-9.78 5.74zm16.21-8.72l63.05 20.69v-2.19l-60.6-19.86z" fill="#64a3ed"/></svg>