<?xml version="1.0" encoding="utf-8"?>
<!-- Generator: Adobe Illustrator 28.2.0, SVG Export Plug-In . SVG Version: 6.00 Build 0)  -->
<svg version="1.1" id="레이어_1" xmlns="http://www.w3.org/2000/svg" xmlns:xlink="http://www.w3.org/1999/xlink" x="0px"
	 y="0px" viewBox="0 0 540 402.15" style="enable-background:new 0 0 540 402.15;" xml:space="preserve">
<style type="text/css">
	.st0{fill:#FFC197;}
	.st1{fill:url(#SVGID_1_);}
	.st2{fill:url(#SVGID_00000075133867438056572330000014313088875741050024_);}
	.st3{fill:url(#SVGID_00000090988327236245706560000018432671043449433748_);}
	.st4{fill:url(#SVGID_00000115489214488776854150000013820691036043439249_);}
	.st5{fill:url(#SVGID_00000109749456812130275250000016669229873268020655_);}
	.st6{fill:url(#SVGID_00000026861995012756845690000015068620637207441059_);}
	.st7{fill:url(#SVGID_00000067234196860772059360000004919641478222768303_);}
	.st8{fill:#FFF0E6;}
	.st9{fill:#FF761A;}
	.st10{fill:#FF9A55;}
	.st11{fill:url(#SVGID_00000124864364206574262480000005694819755083642264_);}
	.st12{fill:#CC5200;}
	.st13{fill:url(#SVGID_00000119079079441270470870000008457723976954324646_);}
	.st14{fill:#E25B00;}
	.st15{fill:url(#SVGID_00000151535655098214579260000012005170953314706062_);}
</style>
<g>
	<polygon class="st0" points="325.95,185.39 183.25,102.99 111.9,185.39 254.6,267.78 	"/>
	<linearGradient id="SVGID_1_" gradientUnits="userSpaceOnUse" x1="166.5615" y1="133.2206" x2="271.2942" y2="237.9533">
		<stop  offset="0" style="stop-color:#F45200"/>
		<stop  offset="1" style="stop-color:#F46300"/>
	</linearGradient>
	<polygon class="st1" points="311.92,188.34 183.95,115.83 125.93,182.83 253.91,255.34 	"/>
	
		<linearGradient id="SVGID_00000157307934520738001390000015967778885235276928_" gradientUnits="userSpaceOnUse" x1="40.5545" y1="247.1827" x2="254.6026" y2="247.1827">
		<stop  offset="0" style="stop-color:#FF9A55"/>
		<stop  offset="1" style="stop-color:#FFC382"/>
	</linearGradient>
	<polygon style="fill:url(#SVGID_00000157307934520738001390000015967778885235276928_);" points="40.55,226.58 111.9,185.39 
		254.6,267.78 183.25,308.98 	"/>
	
		<linearGradient id="SVGID_00000052094503833529095140000006506950079907031690_" gradientUnits="userSpaceOnUse" x1="38.328" y1="228.8107" x2="167.8896" y2="358.3723">
		<stop  offset="0" style="stop-color:#FFC197"/>
		<stop  offset="1" style="stop-color:#FFD697"/>
	</linearGradient>
	<polygon style="fill:url(#SVGID_00000052094503833529095140000006506950079907031690_);" points="40.55,226.58 22.51,277.75 
		165.76,360.51 183.25,308.98 	"/>
	
		<linearGradient id="SVGID_00000032649604064047146750000001148546496250854799_" gradientUnits="userSpaceOnUse" x1="183.2532" y1="92.6935" x2="504.3253" y2="92.6935">
		<stop  offset="0" style="stop-color:#FF9A55"/>
		<stop  offset="1" style="stop-color:#FFC382"/>
	</linearGradient>
	<polygon style="fill:url(#SVGID_00000032649604064047146750000001148546496250854799_);" points="361.63,0 183.25,102.99 
		325.95,185.39 504.33,82.39 	"/>
	
		<linearGradient id="SVGID_00000049944202333891766520000007113673726208641415_" gradientUnits="userSpaceOnUse" x1="145.0045" y1="242.2654" x2="539.9863" y2="242.2654">
		<stop  offset="0" style="stop-color:#F95B12"/>
		<stop  offset="1" style="stop-color:#F97D54"/>
	</linearGradient>
	<polygon style="fill:url(#SVGID_00000049944202333891766520000007113673726208641415_);" points="539.99,103 539.37,177.02 
		155.12,396.6 145,402.15 156.8,365.62 165.71,360.54 183.24,308.97 254.63,267.76 325.95,185.4 504.32,82.38 	"/>
	
		<linearGradient id="SVGID_00000106129313148227468290000004392917478520087693_" gradientUnits="userSpaceOnUse" x1="315.0229" y1="192.18" x2="408.5995" y2="192.18">
		<stop  offset="0" style="stop-color:#AA2500"/>
		<stop  offset="1" style="stop-color:#F46300"/>
	</linearGradient>
	<polygon style="fill:url(#SVGID_00000106129313148227468290000004392917478520087693_);" points="408.6,151.44 361.06,178.89 
		315.02,232.92 408.6,178.89 	"/>
	
		<linearGradient id="SVGID_00000114775751150288261560000010623301145764062650_" gradientUnits="userSpaceOnUse" x1="432.9924" y1="137.3364" x2="504.3088" y2="137.3364">
		<stop  offset="0" style="stop-color:#AA2500"/>
		<stop  offset="1" style="stop-color:#F46300"/>
	</linearGradient>
	<polygon style="fill:url(#SVGID_00000114775751150288261560000010623301145764062650_);" points="432.99,137.34 432.99,164.79 
		504.31,123.61 480.54,109.88 	"/>
	<polygon class="st8" points="48.6,249.35 40.21,273.57 65.38,288.1 73.76,263.88 	"/>
	<polygon class="st9" points="76.14,269.56 70.39,286.18 127.42,319.21 133.18,302.59 	"/>
	<polygon class="st8" points="138.87,301.13 130.49,325.35 155.65,339.87 164.04,315.66 	"/>
	<polygon class="st10" points="165.76,360.51 156.79,365.61 13.58,282.92 22.51,277.75 	"/>
	
		<linearGradient id="SVGID_00000058585011590281139920000005925635180305606033_" gradientUnits="userSpaceOnUse" x1="15.7813" y1="280.7313" x2="141.1017" y2="406.0517">
		<stop  offset="0" style="stop-color:#FF6B40"/>
		<stop  offset="1" style="stop-color:#FF822E"/>
	</linearGradient>
	<polygon style="fill:url(#SVGID_00000058585011590281139920000005925635180305606033_);" points="13.59,282.92 0,321.08 
		145.01,402.14 156.79,365.61 	"/>
	<g>
		<path class="st12" d="M277.2,313.26c0.28,1.93,0.42,3.92,0.42,5.97c0,24.74-20.06,50.2-44.82,56.81
			c-0.92,0.25-1.85,0.48-2.77,0.64l-5.41,7.28l-3.05-1.8c-4.06-1.29-7.7-3.33-10.81-6c-7.03-6.02-11.32-15.3-11.32-26.73
			c0-24.77,20.09-50.2,44.82-56.84c9.78-2.61,18.8-1.9,26.17,1.43l0.2,0.08l3.53,1.9l11.46,5.95L277.2,313.26z"/>
		
			<linearGradient id="SVGID_00000100357561841215418890000006869349545082644126_" gradientUnits="userSpaceOnUse" x1="234.0948" y1="307.3139" x2="274.7375" y2="377.7092">
			<stop  offset="0" style="stop-color:#F48940"/>
			<stop  offset="1" style="stop-color:#F4A540"/>
		</linearGradient>
		<path style="fill:url(#SVGID_00000100357561841215418890000006869349545082644126_);" d="M299.24,330.5
			c0,24.75-20.07,50.2-44.82,56.83c-24.75,6.63-44.82-8.06-44.82-32.81s20.07-50.2,44.82-56.83
			C279.17,291.06,299.24,305.75,299.24,330.5z"/>
		
			<ellipse transform="matrix(0.6585 -0.7526 0.7526 0.6585 -170.8214 308.5837)" class="st0" cx="254.6" cy="342.51" rx="37.54" ry="28.74"/>
		
			<ellipse transform="matrix(0.6585 -0.7526 0.7526 0.6585 -170.8214 308.5837)" class="st14" cx="254.6" cy="342.51" rx="9.37" ry="7.17"/>
	</g>
	<g>
		<path class="st12" d="M517.96,179.27c0.28,1.93,0.42,3.92,0.42,5.97c0,24.74-20.06,50.2-44.82,56.81
			c-0.92,0.25-1.85,0.48-2.77,0.64l-5.41,7.28l-3.05-1.8c-4.06-1.29-7.7-3.33-10.81-6c-7.03-6.02-11.32-15.3-11.32-26.73
			c0-24.77,20.09-50.2,44.82-56.84c9.78-2.61,18.8-1.9,26.17,1.43l0.2,0.08l3.53,1.9l11.46,5.95L517.96,179.27z"/>
		
			<linearGradient id="SVGID_00000008871558314577094670000015038123250086414008_" gradientUnits="userSpaceOnUse" x1="474.8573" y1="173.3282" x2="515.5" y2="243.7234">
			<stop  offset="0" style="stop-color:#F48940"/>
			<stop  offset="1" style="stop-color:#F4A540"/>
		</linearGradient>
		<path style="fill:url(#SVGID_00000008871558314577094670000015038123250086414008_);" d="M540,196.52
			c0,24.75-20.07,50.2-44.82,56.83c-24.75,6.63-44.82-8.06-44.82-32.81s20.07-50.2,44.82-56.83C519.93,157.07,540,171.76,540,196.52
			z"/>
		
			<ellipse transform="matrix(0.6585 -0.7526 0.7526 0.6585 12.2385 444.0217)" class="st0" cx="495.37" cy="208.53" rx="37.54" ry="28.74"/>
		
			<ellipse transform="matrix(0.6585 -0.7526 0.7526 0.6585 12.2385 444.0217)" class="st14" cx="495.37" cy="208.53" rx="9.37" ry="7.17"/>
	</g>
</g>
</svg>
