<svg xmlns="http://www.w3.org/2000/svg" xmlns:xlink="http://www.w3.org/1999/xlink" viewBox="0 0 540 402.15" xmlns:v="https://vecta.io/nano"><path d="M325.95 185.39l-142.7-82.4-71.35 82.4 142.7 82.39z" fill="#ffc197"/><linearGradient id="A" gradientUnits="userSpaceOnUse" x1="166.562" y1="133.221" x2="271.294" y2="237.953"><stop offset="0" stop-color="#f45200"/><stop offset="1" stop-color="#f46300"/></linearGradient><path d="M311.92 188.34l-127.97-72.51-58.02 67 127.98 72.51z" fill="url(#A)"/><linearGradient id="B" gradientUnits="userSpaceOnUse" x1="40.555" y1="247.183" x2="254.603" y2="247.183"><stop offset="0" stop-color="#ff9a55"/><stop offset="1" stop-color="#ffc382"/></linearGradient><path d="M40.55 226.58l71.35-41.19 142.7 82.39-71.35 41.2z" fill="url(#B)"/><linearGradient id="C" gradientUnits="userSpaceOnUse" x1="38.328" y1="228.811" x2="167.89" y2="358.372"><stop offset="0" stop-color="#ffc197"/><stop offset="1" stop-color="#ffd697"/></linearGradient><path d="M40.55 226.58l-18.04 51.17 143.25 82.76 17.49-51.53z" fill="url(#C)"/><linearGradient id="D" gradientUnits="userSpaceOnUse" x1="183.253" y1="92.694" x2="504.325" y2="92.694"><stop offset="0" stop-color="#ff9a55"/><stop offset="1" stop-color="#ffc382"/></linearGradient><path d="M361.63 0L183.25 102.99l142.7 82.4 178.38-103z" fill="url(#D)"/><linearGradient id="E" gradientUnits="userSpaceOnUse" x1="145.005" y1="242.265" x2="539.986" y2="242.265"><stop offset="0" stop-color="#f95b12"/><stop offset="1" stop-color="#f97d54"/></linearGradient><path d="M539.99 103l-.62 74.02L155.12 396.6 145 402.15l11.8-36.53 8.91-5.08 17.53-51.57 71.39-41.21 71.32-82.36L504.32 82.38z" fill="url(#E)"/><linearGradient id="F" gradientUnits="userSpaceOnUse" x1="315.023" y1="192.18" x2="408.6" y2="192.18"><stop offset="0" stop-color="#aa2500"/><stop offset="1" stop-color="#f46300"/></linearGradient><path d="M408.6 151.44l-47.54 27.45-46.04 54.03 93.58-54.03z" fill="url(#F)"/><linearGradient id="G" gradientUnits="userSpaceOnUse" x1="432.992" y1="137.336" x2="504.309" y2="137.336"><stop offset="0" stop-color="#aa2500"/><stop offset="1" stop-color="#f46300"/></linearGradient><path d="M432.99 137.34v27.45l71.32-41.18-23.77-13.73z" fill="url(#G)"/><path d="M48.6 249.35l-8.39 24.22 25.17 14.53 8.38-24.22z" fill="#fff0e6"/><path d="M76.14 269.56l-5.75 16.62 57.03 33.03 5.76-16.62z" fill="#ff761a"/><path d="M138.87 301.13l-8.38 24.22 25.16 14.52 8.39-24.21z" fill="#fff0e6"/><path d="M165.76 360.51l-8.97 5.1-143.21-82.69 8.93-5.17z" fill="#ff9a55"/><linearGradient id="H" gradientUnits="userSpaceOnUse" x1="15.781" y1="280.731" x2="141.102" y2="406.052"><stop offset="0" stop-color="#ff6b40"/><stop offset="1" stop-color="#ff822e"/></linearGradient><path d="M13.59 282.92L0 321.08l145.01 81.06 11.78-36.53z" fill="url(#H)"/><use xlink:href="#L" fill="#cc5200"/><linearGradient id="I" gradientUnits="userSpaceOnUse" x1="234.095" y1="307.314" x2="274.738" y2="377.709"><stop offset="0" stop-color="#f48940"/><stop offset="1" stop-color="#f4a540"/></linearGradient><path d="M299.24 330.5c0 24.75-20.07 50.2-44.82 56.83s-44.82-8.06-44.82-32.81 20.07-50.2 44.82-56.83 44.82 8.06 44.82 32.81z" fill="url(#I)"/><g transform="matrix(.6585 -.7526 .7526 .6585 -170.8214 308.5837)"><ellipse cx="254.6" cy="342.51" rx="37.54" ry="28.74" fill="#ffc197"/><ellipse cx="254.6" cy="342.51" rx="9.37" ry="7.17" fill="#e25b00"/></g><use xlink:href="#L" x="240.76" y="-133.99" fill="#cc5200"/><linearGradient id="J" gradientUnits="userSpaceOnUse" x1="474.857" y1="173.328" x2="515.5" y2="243.723"><stop offset="0" stop-color="#f48940"/><stop offset="1" stop-color="#f4a540"/></linearGradient><path d="M540 196.52c0 24.75-20.07 50.2-44.82 56.83s-44.82-8.06-44.82-32.81 20.07-50.2 44.82-56.83c24.75-6.64 44.82 8.05 44.82 32.81z" fill="url(#J)"/><g transform="matrix(.6585 -.7526 .7526 .6585 12.2385 444.0217)"><ellipse cx="495.37" cy="208.53" rx="37.54" ry="28.74" fill="#ffc197"/><ellipse cx="495.37" cy="208.53" rx="9.37" ry="7.17" fill="#e25b00"/></g><defs ><path id="L" d="M277.2 313.26a41.54 41.54 0 0 1 .42 5.97c0 24.74-20.06 50.2-44.82 56.81-.92.25-1.85.48-2.77.64l-5.41 7.28-3.05-1.8c-4.06-1.29-7.7-3.33-10.81-6-7.03-6.02-11.32-15.3-11.32-26.73 0-24.77 20.09-50.2 44.82-56.84 9.78-2.61 18.8-1.9 26.17 1.43l.2.08 3.53 1.9 11.46 5.95-8.42 11.31z"/></defs></svg>