<?xml version="1.0" encoding="utf-8"?>
<!-- Generator: Adobe Illustrator 28.2.0, SVG Export Plug-In . SVG Version: 6.00 Build 0)  -->
<svg version="1.1" id="레이어_1" xmlns="http://www.w3.org/2000/svg" xmlns:xlink="http://www.w3.org/1999/xlink" x="0px"
	 y="0px" viewBox="0 0 499.76 540" style="enable-background:new 0 0 499.76 540;" xml:space="preserve">
<style type="text/css">
	.st0{fill:url(#SVGID_1_);}
	.st1{fill:url(#SVGID_00000170251395767138462130000005004140255322075785_);}
	.st2{fill:url(#SVGID_00000084498003762151893500000006982747373612835975_);}
	.st3{fill:url(#SVGID_00000163760857195217132320000007590013495321645499_);}
	.st4{fill:url(#SVGID_00000030480984898263729790000002444415995926341047_);}
	.st5{fill:#F3F8FF;}
	.st6{fill:url(#SVGID_00000173118596782880743860000010856491336531301779_);}
	.st7{fill:#AAAAAA;}
	.st8{fill:#2865D1;}
	.st9{fill:#4875D8;}
	.st10{fill:#EFEFEF;}
	.st11{fill:#9ABCF7;}
	.st12{fill:#4B87E0;}
	.st13{fill:#F3F9FF;}
	.st14{fill:#3D83E8;}
	.st15{fill:#64A3ED;}
</style>
<g>
	<linearGradient id="SVGID_1_" gradientUnits="userSpaceOnUse" x1="156.1742" y1="90.1827" x2="468.5279" y2="270.5202">
		<stop  offset="0" style="stop-color:#0041BF"/>
		<stop  offset="1" style="stop-color:#2865D1"/>
	</linearGradient>
	<polygon class="st0" points="124.94,144.28 374.82,0 499.76,216.42 249.88,360.7 	"/>
	
		<linearGradient id="SVGID_00000068638113603105114840000011453362533193381769_" gradientUnits="userSpaceOnUse" x1="25.1018" y1="208.9821" x2="218.9821" y2="544.7927">
		<stop  offset="0" style="stop-color:#DDDDDD"/>
		<stop  offset="0.9994" style="stop-color:#FFFFFF"/>
	</linearGradient>
	<polygon style="fill:url(#SVGID_00000068638113603105114840000011453362533193381769_);" points="227.28,347.63 227.28,540 
		15.69,417.85 15.69,225.48 122.6,152.69 	"/>
	
		<linearGradient id="SVGID_00000072259058435581643680000015133647196319345329_" gradientUnits="userSpaceOnUse" x1="206.1289" y1="518.8457" x2="497.7797" y2="227.1949">
		<stop  offset="0" style="stop-color:#B5B5B5"/>
		<stop  offset="1" style="stop-color:#EFEFEF"/>
	</linearGradient>
	<polygon style="fill:url(#SVGID_00000072259058435581643680000015133647196319345329_);" points="227.28,540 490.29,384.75 
		491.68,221.09 249.88,360.7 227.28,347.63 	"/>
	
		<linearGradient id="SVGID_00000182529341255446980570000015980487896514195645_" gradientUnits="userSpaceOnUse" x1="333.1744" y1="185.7787" x2="374.8212" y2="185.7787">
		<stop  offset="0" style="stop-color:#B5B5B5"/>
		<stop  offset="1" style="stop-color:#EFEFEF"/>
	</linearGradient>
	<polygon style="fill:url(#SVGID_00000182529341255446980570000015980487896514195645_);" points="374.82,125.66 333.17,149.71 
		333.17,245.9 374.82,221.85 	"/>
	
		<linearGradient id="SVGID_00000111170329508231945150000001882273667151626418_" gradientUnits="userSpaceOnUse" x1="291.5276" y1="185.7787" x2="333.1744" y2="185.7787">
		<stop  offset="0" style="stop-color:#DDDDDD"/>
		<stop  offset="0.9994" style="stop-color:#FFFFFF"/>
	</linearGradient>
	<polygon style="fill:url(#SVGID_00000111170329508231945150000001882273667151626418_);" points="291.53,125.66 291.53,221.85 
		333.17,245.9 333.17,149.71 	"/>
	<polygon class="st5" points="333.17,101.61 291.53,125.66 333.17,149.71 374.82,125.66 	"/>
	
		<linearGradient id="SVGID_00000138542593961835303610000004888654528205721512_" gradientUnits="userSpaceOnUse" x1="308.9191" y1="111.6623" x2="341.2645" y2="130.3369">
		<stop  offset="0" style="stop-color:#686868"/>
		<stop  offset="0.3929" style="stop-color:#6B6B6B"/>
		<stop  offset="0.6852" style="stop-color:#747474"/>
		<stop  offset="0.9441" style="stop-color:#848484"/>
		<stop  offset="0.9996" style="stop-color:#898989"/>
	</linearGradient>
	<polygon style="fill:url(#SVGID_00000138542593961835303610000004888654528205721512_);" points="333.18,106.99 333.18,144.34 
		300.83,125.67 	"/>
	<polygon class="st7" points="365.52,125.67 333.18,144.34 333.18,106.99 	"/>
	<polygon class="st8" points="73.97,451.51 73.97,355.32 138.34,392.49 138.34,488.68 	"/>
	<polygon class="st9" points="0,216.42 124.94,144.28 249.88,360.7 227.28,347.63 121.62,166.54 15.69,225.48 	"/>
	
		<ellipse transform="matrix(0.7375 -0.6753 0.6753 0.7375 -258.3133 198.259)" class="st10" cx="125.88" cy="431.42" rx="2.92" ry="3.48"/>
	<polygon class="st11" points="113.49,212.13 53,247.05 173.97,316.9 	"/>
	<polygon class="st12" points="113.49,212.13 113.49,281.93 115.79,283.31 115.79,216.11 	"/>
	<polygon class="st12" points="73.07,235.47 150.67,276.53 148.25,272.35 75.1,234.3 	"/>
	<polygon class="st13" points="314.99,359.03 314.99,443.38 416.06,385.02 416.06,300.66 	"/>
	<polygon class="st14" points="320.13,363.29 320.13,433.18 410.91,380.76 410.91,310.87 	"/>
	<polygon class="st15" points="327.79,364.26 338.25,358.42 403.82,379.81 394.04,385.55 	"/>
	<polygon class="st15" points="344,355.54 407.05,376.23 407.05,374.04 346.45,354.18 	"/>
</g>
</svg>
