<?xml version="1.0" encoding="utf-8"?>
<!-- Generator: Adobe Illustrator 28.2.0, SVG Export Plug-In . SVG Version: 6.00 Build 0)  -->
<svg version="1.1" id="레이어_1" xmlns="http://www.w3.org/2000/svg" xmlns:xlink="http://www.w3.org/1999/xlink" x="0px"
	 y="0px" viewBox="0 0 166.59 180" style="enable-background:new 0 0 166.59 180;" xml:space="preserve">
<style type="text/css">
	.st0{fill:url(#SVGID_1_);}
	.st1{fill:url(#SVGID_00000088828339495792698160000001805919836538262680_);}
	.st2{fill:url(#SVGID_00000092431846232188595920000005784313484552535169_);}
	.st3{fill:url(#SVGID_00000168802948759706277510000006738404478288557962_);}
	.st4{fill:url(#SVGID_00000119075849121156605260000007375973516885620662_);}
	.st5{fill:#F3F8FF;}
	.st6{fill:url(#SVGID_00000116228294039509659160000000085149967273729206_);}
	.st7{fill:#AAAAAA;}
	.st8{fill:#2865D1;}
	.st9{fill:#4875D8;}
	.st10{fill:#EFEFEF;}
	.st11{fill:#9ABCF7;}
	.st12{fill:#4B87E0;}
	.st13{fill:#F3F9FF;}
	.st14{fill:#3D83E8;}
	.st15{fill:#64A3ED;}
</style>
<g>
	<linearGradient id="SVGID_1_" gradientUnits="userSpaceOnUse" x1="52.0581" y1="30.0609" x2="156.176" y2="90.1734">
		<stop  offset="0" style="stop-color:#0041BF"/>
		<stop  offset="1" style="stop-color:#2865D1"/>
	</linearGradient>
	<polygon class="st0" points="41.65,48.09 124.94,0 166.59,72.14 83.29,120.23 	"/>
	
		<linearGradient id="SVGID_00000064312294392131294440000010401180650043067264_" gradientUnits="userSpaceOnUse" x1="8.3673" y1="69.6607" x2="72.994" y2="181.5975">
		<stop  offset="0" style="stop-color:#DDDDDD"/>
		<stop  offset="0.9994" style="stop-color:#FFFFFF"/>
	</linearGradient>
	<polygon style="fill:url(#SVGID_00000064312294392131294440000010401180650043067264_);" points="75.76,115.88 75.76,180 
		5.23,139.28 5.23,75.16 40.87,50.9 	"/>
	
		<linearGradient id="SVGID_00000019649190008182275470000008873417806910760345_" gradientUnits="userSpaceOnUse" x1="68.7096" y1="172.9486" x2="165.9266" y2="75.7316">
		<stop  offset="0" style="stop-color:#B5B5B5"/>
		<stop  offset="1" style="stop-color:#EFEFEF"/>
	</linearGradient>
	<polygon style="fill:url(#SVGID_00000019649190008182275470000008873417806910760345_);" points="75.76,180 163.43,128.25 
		163.89,73.7 83.29,120.23 75.76,115.88 	"/>
	
		<linearGradient id="SVGID_00000069385337898042352330000007301320666643784609_" gradientUnits="userSpaceOnUse" x1="111.0581" y1="61.9263" x2="124.9404" y2="61.9263">
		<stop  offset="0" style="stop-color:#B5B5B5"/>
		<stop  offset="1" style="stop-color:#EFEFEF"/>
	</linearGradient>
	<polygon style="fill:url(#SVGID_00000069385337898042352330000007301320666643784609_);" points="124.94,41.89 111.06,49.9 
		111.06,81.97 124.94,73.95 	"/>
	
		<linearGradient id="SVGID_00000027594005787580865180000014736099324940965294_" gradientUnits="userSpaceOnUse" x1="97.1759" y1="61.9263" x2="111.0581" y2="61.9263">
		<stop  offset="0" style="stop-color:#DDDDDD"/>
		<stop  offset="0.9994" style="stop-color:#FFFFFF"/>
	</linearGradient>
	<polygon style="fill:url(#SVGID_00000027594005787580865180000014736099324940965294_);" points="97.18,41.89 97.18,73.95 
		111.06,81.97 111.06,49.9 	"/>
	<polygon class="st5" points="111.06,33.87 97.18,41.89 111.06,49.9 124.94,41.89 	"/>
	
		<linearGradient id="SVGID_00000177477618852598451510000006085220213410024342_" gradientUnits="userSpaceOnUse" x1="102.973" y1="37.2208" x2="113.7548" y2="43.4456">
		<stop  offset="0" style="stop-color:#686868"/>
		<stop  offset="0.3929" style="stop-color:#6B6B6B"/>
		<stop  offset="0.6852" style="stop-color:#747474"/>
		<stop  offset="0.9441" style="stop-color:#848484"/>
		<stop  offset="0.9996" style="stop-color:#898989"/>
	</linearGradient>
	<polygon style="fill:url(#SVGID_00000177477618852598451510000006085220213410024342_);" points="111.06,35.66 111.06,48.11 
		100.28,41.89 	"/>
	<polygon class="st7" points="121.84,41.89 111.06,48.11 111.06,35.66 	"/>
	<polygon class="st8" points="24.66,150.5 24.66,118.44 46.11,130.83 46.11,162.89 	"/>
	<polygon class="st9" points="0,72.14 41.65,48.09 83.29,120.23 75.76,115.88 40.54,55.51 5.23,75.16 	"/>
	
		<ellipse transform="matrix(0.7375 -0.6753 0.6753 0.7375 -86.1044 66.0863)" class="st10" cx="41.96" cy="143.81" rx="0.97" ry="1.16"/>
	<polygon class="st11" points="37.83,70.71 17.67,82.35 57.99,105.63 	"/>
	<polygon class="st12" points="37.83,70.71 37.83,93.98 38.6,94.44 38.6,72.04 	"/>
	<polygon class="st12" points="24.36,78.49 50.22,92.18 49.42,90.78 25.03,78.1 	"/>
	<polygon class="st13" points="105,119.68 105,147.79 138.69,128.34 138.69,100.22 	"/>
	<polygon class="st14" points="106.71,121.1 106.71,144.39 136.97,126.92 136.97,103.62 	"/>
	<polygon class="st15" points="109.26,121.42 112.75,119.47 134.61,126.6 131.35,128.52 	"/>
	<polygon class="st15" points="114.67,118.51 135.68,125.41 135.68,124.68 115.48,118.06 	"/>
</g>
</svg>
