<?xml version="1.0" encoding="utf-8"?>
<!-- Generator: Adobe Illustrator 28.2.0, SVG Export Plug-In . SVG Version: 6.00 Build 0)  -->
<svg version="1.1" id="레이어_1" xmlns="http://www.w3.org/2000/svg" xmlns:xlink="http://www.w3.org/1999/xlink" x="0px"
	 y="0px" viewBox="0 0 180 134.05" style="enable-background:new 0 0 180 134.05;" xml:space="preserve">
<style type="text/css">
	.st0{fill:#FFC197;}
	.st1{fill:url(#SVGID_1_);}
	.st2{fill:url(#SVGID_00000103952044198515993490000002453177636558086307_);}
	.st3{fill:url(#SVGID_00000152261271327512381670000008992416749131671699_);}
	.st4{fill:url(#SVGID_00000004541600557527337120000008158572559421813394_);}
	.st5{fill:url(#SVGID_00000183935515055414778890000006759229295277698976_);}
	.st6{fill:url(#SVGID_00000052794108986864773120000003735801554702573967_);}
	.st7{fill:url(#SVGID_00000094597147530960718380000008458572408451039126_);}
	.st8{fill:#FFF0E6;}
	.st9{fill:#FF761A;}
	.st10{fill:#FF9A55;}
	.st11{fill:url(#SVGID_00000176022666186281382410000014788303692628190094_);}
	.st12{fill:#CC5200;}
	.st13{fill:url(#SVGID_00000080906475902864158220000006946962936022208702_);}
	.st14{fill:#E25B00;}
	.st15{fill:url(#SVGID_00000040563460239954624370000001827452913069397143_);}
</style>
<g>
	<polygon class="st0" points="108.65,61.8 61.08,34.33 37.3,61.8 84.87,89.26 	"/>
	<linearGradient id="SVGID_1_" gradientUnits="userSpaceOnUse" x1="55.5205" y1="44.4069" x2="90.4314" y2="79.3178">
		<stop  offset="0" style="stop-color:#F45200"/>
		<stop  offset="1" style="stop-color:#F46300"/>
	</linearGradient>
	<polygon class="st1" points="103.97,62.78 61.32,38.61 41.98,60.94 84.64,85.11 	"/>
	
		<linearGradient id="SVGID_00000151541022687484565620000012172255953733227147_" gradientUnits="userSpaceOnUse" x1="13.5182" y1="82.3942" x2="84.8675" y2="82.3942">
		<stop  offset="0" style="stop-color:#FF9A55"/>
		<stop  offset="1" style="stop-color:#FFC382"/>
	</linearGradient>
	<polygon style="fill:url(#SVGID_00000151541022687484565620000012172255953733227147_);" points="13.52,75.53 37.3,61.8 
		84.87,89.26 61.08,102.99 	"/>
	
		<linearGradient id="SVGID_00000172427251221623465390000017496118413379250865_" gradientUnits="userSpaceOnUse" x1="12.776" y1="76.2702" x2="55.9632" y2="119.4574">
		<stop  offset="0" style="stop-color:#FFC197"/>
		<stop  offset="1" style="stop-color:#FFD697"/>
	</linearGradient>
	<polygon style="fill:url(#SVGID_00000172427251221623465390000017496118413379250865_);" points="13.52,75.53 7.5,92.58 
		55.25,120.17 61.08,102.99 	"/>
	
		<linearGradient id="SVGID_00000022548402995480177080000002339151912172346037_" gradientUnits="userSpaceOnUse" x1="61.0844" y1="30.8978" x2="168.1084" y2="30.8978">
		<stop  offset="0" style="stop-color:#FF9A55"/>
		<stop  offset="1" style="stop-color:#FFC382"/>
	</linearGradient>
	<polygon style="fill:url(#SVGID_00000022548402995480177080000002339151912172346037_);" points="120.54,0 61.08,34.33 
		108.65,61.8 168.11,27.46 	"/>
	
		<linearGradient id="SVGID_00000052793682899730046580000013416430757271901104_" gradientUnits="userSpaceOnUse" x1="48.3348" y1="80.7551" x2="179.9954" y2="80.7551">
		<stop  offset="0" style="stop-color:#F95B12"/>
		<stop  offset="1" style="stop-color:#F97D54"/>
	</linearGradient>
	<polygon style="fill:url(#SVGID_00000052793682899730046580000013416430757271901104_);" points="180,34.33 179.79,59.01 
		51.71,132.2 48.33,134.05 52.27,121.87 55.24,120.18 61.08,102.99 84.88,89.25 108.65,61.8 168.11,27.46 	"/>
	
		<linearGradient id="SVGID_00000011724079889032875480000011859685102000127165_" gradientUnits="userSpaceOnUse" x1="105.0076" y1="64.06" x2="136.1998" y2="64.06">
		<stop  offset="0" style="stop-color:#AA2500"/>
		<stop  offset="1" style="stop-color:#F46300"/>
	</linearGradient>
	<polygon style="fill:url(#SVGID_00000011724079889032875480000011859685102000127165_);" points="136.2,50.48 120.35,59.63 
		105.01,77.64 136.2,59.63 	"/>
	
		<linearGradient id="SVGID_00000104706860357434849310000014125663264150950075_" gradientUnits="userSpaceOnUse" x1="144.3308" y1="45.7788" x2="168.103" y2="45.7788">
		<stop  offset="0" style="stop-color:#AA2500"/>
		<stop  offset="1" style="stop-color:#F46300"/>
	</linearGradient>
	<polygon style="fill:url(#SVGID_00000104706860357434849310000014125663264150950075_);" points="144.33,45.78 144.33,54.93 
		168.1,41.2 160.18,36.63 	"/>
	<polygon class="st8" points="16.2,83.12 13.4,91.19 21.79,96.03 24.59,87.96 	"/>
	<polygon class="st9" points="25.38,89.85 23.46,95.39 42.47,106.4 44.39,100.86 	"/>
	<polygon class="st8" points="46.29,100.38 43.5,108.45 51.88,113.29 54.68,105.22 	"/>
	<polygon class="st10" points="55.25,120.17 52.26,121.87 4.53,94.31 7.5,92.58 	"/>
	
		<linearGradient id="SVGID_00000101818287467856932740000000252750573035784365_" gradientUnits="userSpaceOnUse" x1="5.2604" y1="93.5771" x2="47.0339" y2="135.3506">
		<stop  offset="0" style="stop-color:#FF6B40"/>
		<stop  offset="1" style="stop-color:#FF822E"/>
	</linearGradient>
	<polygon style="fill:url(#SVGID_00000101818287467856932740000000252750573035784365_);" points="4.53,94.31 0,107.03 
		48.34,134.05 52.26,121.87 	"/>
	<g>
		<path class="st12" d="M92.4,104.42c0.09,0.64,0.14,1.31,0.14,1.99c0,8.25-6.69,16.73-14.94,18.94c-0.31,0.08-0.62,0.16-0.92,0.21
			l-1.8,2.43l-1.02-0.6c-1.35-0.43-2.57-1.11-3.6-2c-2.34-2.01-3.77-5.1-3.77-8.91c0-8.26,6.7-16.73,14.94-18.95
			c3.26-0.87,6.27-0.63,8.72,0.48l0.07,0.03l1.18,0.64l3.82,1.98L92.4,104.42z"/>
		
			<linearGradient id="SVGID_00000003807451075244348140000013038226659901185957_" gradientUnits="userSpaceOnUse" x1="78.0316" y1="102.438" x2="91.5792" y2="125.9031">
			<stop  offset="0" style="stop-color:#F48940"/>
			<stop  offset="1" style="stop-color:#F4A540"/>
		</linearGradient>
		<path style="fill:url(#SVGID_00000003807451075244348140000013038226659901185957_);" d="M99.75,110.17
			c0,8.25-6.69,16.73-14.94,18.94s-14.94-2.69-14.94-10.94s6.69-16.73,14.94-18.94S99.75,101.92,99.75,110.17z"/>
		
			<ellipse transform="matrix(0.6585 -0.7526 0.7526 0.6585 -56.9405 102.8612)" class="st0" cx="84.87" cy="114.17" rx="12.51" ry="9.58"/>
		
			<ellipse transform="matrix(0.6585 -0.7526 0.7526 0.6585 -56.9405 102.8612)" class="st14" cx="84.87" cy="114.17" rx="3.12" ry="2.39"/>
	</g>
	<g>
		<path class="st12" d="M172.65,59.76c0.09,0.64,0.14,1.31,0.14,1.99c0,8.25-6.69,16.73-14.94,18.94c-0.31,0.08-0.62,0.16-0.92,0.21
			l-1.8,2.43l-1.02-0.6c-1.35-0.43-2.57-1.11-3.6-2c-2.34-2.01-3.77-5.1-3.77-8.91c0-8.26,6.7-16.73,14.94-18.95
			c3.26-0.87,6.27-0.63,8.72,0.48l0.07,0.03l1.18,0.63l3.82,1.98L172.65,59.76z"/>
		
			<linearGradient id="SVGID_00000002383430298806846290000003152042970617561248_" gradientUnits="userSpaceOnUse" x1="158.2858" y1="57.7761" x2="171.8333" y2="81.2411">
			<stop  offset="0" style="stop-color:#F48940"/>
			<stop  offset="1" style="stop-color:#F4A540"/>
		</linearGradient>
		<path style="fill:url(#SVGID_00000002383430298806846290000003152042970617561248_);" d="M180,65.51
			c0,8.25-6.69,16.73-14.94,18.94c-8.25,2.21-14.94-2.69-14.94-10.94s6.69-16.73,14.94-18.94C173.31,52.36,180,57.25,180,65.51z"/>
		
			<ellipse transform="matrix(0.6585 -0.7526 0.7526 0.6585 4.0795 148.0072)" class="st0" cx="165.12" cy="69.51" rx="12.51" ry="9.58"/>
		
			<ellipse transform="matrix(0.6585 -0.7526 0.7526 0.6585 4.0795 148.0072)" class="st14" cx="165.12" cy="69.51" rx="3.12" ry="2.39"/>
	</g>
</g>
</svg>
